<?xml version="1.0" encoding="UTF-8"?> <!-- Generator: Adobe Illustrator 24.1.3, SVG Export Plug-In . SVG Version: 6.00 Build 0) --> <svg xmlns="http://www.w3.org/2000/svg" xmlns:xlink="http://www.w3.org/1999/xlink" version="1.1" id="Calque_1" x="0px" y="0px" width="1000px" height="530px" viewBox="0 0 1000 530" style="enable-background:new 0 0 1000 530;" xml:space="preserve"> <style type="text/css"> .st0{fill-rule:evenodd;clip-rule:evenodd;fill:none;stroke:#002078;stroke-width:0.8132;stroke-miterlimit:10;} .st1{fill:#109629;} .st2{fill:#6A7072;} .st3{fill:#00448B;} .st4{fill:#002078;} .st5{fill-rule:evenodd;clip-rule:evenodd;fill:#E1523F;} .st6{fill:#E1523F;} .st7{fill:none;stroke:#002078;stroke-width:1.233;stroke-miterlimit:10;stroke-dasharray:1.2342,2.4683;} .st8{fill-rule:evenodd;clip-rule:evenodd;fill:none;stroke:#FF6E00;stroke-width:2.466;stroke-linecap:round;stroke-miterlimit:10;} </style> <ellipse transform="matrix(4.110618e-02 -0.9992 0.9992 4.110618e-02 220.7483 754.0842)" class="st0" cx="503.2" cy="262" rx="137.5" ry="137.5"></ellipse> <g> <polygon class="st1" points="423.9,222.8 435.9,222.8 435.9,240.1 453.4,222.8 465.8,222.8 448.6,240.1 469.3,264.7 454.5,264.7 440.7,248 436,252.7 436,264.7 423.9,264.7 "></polygon> <polygon class="st2" points="478.5,264.4 490.4,264.4 490.4,238.3 509.7,264.4 523.7,264.4 523.7,222.4 511.8,222.4 511.8,248.4 493.2,222.4 478.5,222.4 "></polygon> <polygon class="st3" points="528.4,264.7 540.6,264.7 555.4,249.6 568.1,264.7 582.6,264.7 563.1,241.6 582,222.4 570,222.4 557.6,234.8 546.9,222.4 532.7,222.4 549.9,242.9 "></polygon> <path class="st1" d="M423.9,219.9h12.3c0,0,21.5-21.4,66.8-21.5v-8.6C452.9,189.9,423.9,219.9,423.9,219.9z"></path> <path class="st3" d="M570,219.9h12.1c0,0-29-30.1-79.1-30.1v8.6c0.1,0,0.2,0,0.3,0C548.8,198.4,570,219.9,570,219.9z"></path> </g> <g> <g> <path class="st4" d="M424.8,311.5l1.3-2.7c1.8,1.6,4.9,2.8,8.1,2.8c4.2,0,6.1-1.6,6.1-3.8c0-6-14.8-2.2-14.8-11.3 c0-3.8,2.9-7,9.4-7c2.9,0,5.8,0.8,7.9,2.2l-1.2,2.8c-2.1-1.4-4.6-2-6.7-2c-4.2,0-6,1.8-6,3.9c0,6,14.8,2.2,14.8,11.2 c0,3.7-3,7-9.5,7C430.4,314.5,426.7,313.3,424.8,311.5z"></path> <path class="st4" d="M457.8,313.2c-1,0.9-2.6,1.3-4.1,1.3c-3.7,0-5.9-2.1-5.9-5.8v-10.2h-3.2v-2.8h3.2v-4.1h3.4v4.1h5.3v2.8h-5.3 v10c0,2,1.1,3.1,2.9,3.1c1,0,1.9-0.3,2.6-0.9L457.8,313.2z"></path> <path class="st4" d="M475.7,303.1v11.2h-3.2v-2.5c-1.1,1.7-3.2,2.7-6.1,2.7c-4.2,0-6.9-2.2-6.9-5.5c0-3,1.9-5.4,7.5-5.4h5.3v-0.7 c0-2.8-1.6-4.5-5-4.5c-2.2,0-4.4,0.8-5.9,2l-1.4-2.5c1.9-1.5,4.7-2.4,7.7-2.4C472.8,295.5,475.7,298,475.7,303.1z M472.3,308.6 V306h-5.2c-3.3,0-4.3,1.3-4.3,2.9c0,1.9,1.5,3,4.1,3C469.5,311.9,471.5,310.7,472.3,308.6z"></path> <path class="st4" d="M498.7,303.6v10.7h-3.4V304c0-3.6-1.8-5.4-5-5.4c-3.6,0-5.9,2.1-5.9,6.2v9.6H481v-18.6h3.2v2.8 c1.4-1.9,3.7-3,6.7-3C495.5,295.5,498.7,298.1,498.7,303.6z"></path> <path class="st4" d="M521.6,288.3v26h-3.2v-2.9c-1.5,2.1-3.9,3.2-6.6,3.2c-5.4,0-9.4-3.8-9.4-9.5c0-5.7,4-9.5,9.4-9.5 c2.6,0,4.9,1,6.5,3v-10.2H521.6z M518.3,305c0-4-2.7-6.5-6.2-6.5c-3.6,0-6.3,2.6-6.3,6.5c0,4,2.7,6.5,6.3,6.5 C515.6,311.5,518.3,308.9,518.3,305z"></path> <path class="st4" d="M541.8,303.1v11.2h-3.2v-2.5c-1.1,1.7-3.2,2.7-6.1,2.7c-4.2,0-6.9-2.2-6.9-5.5c0-3,1.9-5.4,7.5-5.4h5.3v-0.7 c0-2.8-1.6-4.5-5-4.5c-2.2,0-4.4,0.8-5.9,2l-1.4-2.5c1.9-1.5,4.7-2.4,7.7-2.4C538.9,295.5,541.8,298,541.8,303.1z M538.4,308.6 V306h-5.2c-3.3,0-4.3,1.3-4.3,2.9c0,1.9,1.5,3,4.1,3C535.6,311.9,537.6,310.7,538.4,308.6z"></path> <path class="st4" d="M557.1,295.5v3.3c-0.3,0-0.5,0-0.8,0c-3.6,0-5.8,2.2-5.8,6.3v9.2h-3.4v-18.6h3.2v3.1 C551.6,296.7,553.9,295.5,557.1,295.5z"></path> <path class="st4" d="M577.7,288.3v26h-3.2v-2.9c-1.5,2.1-3.9,3.2-6.6,3.2c-5.4,0-9.4-3.8-9.4-9.5c0-5.7,4-9.5,9.4-9.5 c2.6,0,4.9,1,6.5,3v-10.2H577.7z M574.4,305c0-4-2.7-6.5-6.2-6.5c-3.6,0-6.3,2.6-6.3,6.5c0,4,2.7,6.5,6.3,6.5 C571.7,311.5,574.4,308.9,574.4,305z"></path> </g> </g> <path class="st5" d="M254.8,357h26.4c1.1,0,2,0.9,2,2v5.9h-18.4v-5.6v-0.6h-0.6h-11.3C253,357.7,253.9,357,254.8,357L254.8,357z M283.2,366L283.2,366v30.9c0,1.1-0.9,2-2,2h-26.4c-1.1,0-2-0.9-2-2V366H283.2L283.2,366z M252.9,364.8L252.9,364.8h10.7v0v-4.9 h-10.7V364.8L252.9,364.8z M266.3,358.6L266.3,358.6v2.8h8v-2.8H266.3L266.3,358.6z M268,373.4L268,373.4L268,373.4 c2.3,0,4.3,0.9,5.8,2.4c0.9,0.9,1.6,2,2,3.3h1.7c-1.1-4.2-4.9-7.3-9.5-7.3c-5.4,0-9.8,4.4-9.8,9.8c0,5.4,4.4,9.8,9.8,9.8 c4.5,0,8.3-3.1,9.5-7.3h-1.7c-0.4,1.3-1.1,2.4-2,3.3c-1.5,1.5-3.5,2.4-5.8,2.4h0h0c-2.3,0-4.3-0.9-5.8-2.4v0 c-1.5-1.5-2.4-3.5-2.4-5.8v0v0c0-2.3,0.9-4.3,2.4-5.8C263.7,374.3,265.8,373.4,268,373.4L268,373.4L268,373.4z M268,375.2L268,375.2 L268,375.2L268,375.2c-1.8,0-3.3,0.7-4.5,1.9c-1.2,1.2-1.9,2.7-1.9,4.5v0v0c0,1.8,0.7,3.3,1.9,4.5l0,0c1.2,1.2,2.7,1.9,4.5,1.9h0h0 c1.7,0,3.3-0.7,4.5-1.9c1.2-1.2,1.9-2.7,1.9-4.5v0v0c0-1.7-0.7-3.3-1.9-4.5S269.8,375.2,268,375.2L268,375.2z M278.7,358L278.7,358 L278.7,358c-0.8,0-1.6,0.3-2.1,0.9l0,0c-0.5,0.5-0.9,1.3-0.9,2.1v0v0c0,0.8,0.3,1.6,0.9,2.1c0.5,0.5,1.3,0.9,2.1,0.9h0h0 c0.8,0,1.6-0.3,2.1-0.9c0.5-0.5,0.9-1.3,0.9-2.1v0v0c0-0.8-0.3-1.6-0.9-2.1l0,0C280.3,358.3,279.5,358,278.7,358L278.7,358 L278.7,358z M278.7,359.3L278.7,359.3L278.7,359.3L278.7,359.3c-0.5,0-0.9,0.2-1.2,0.5h0c-0.3,0.3-0.5,0.7-0.5,1.2v0v0 c0,0.5,0.2,0.9,0.5,1.2c0.3,0.3,0.7,0.5,1.2,0.5h0h0c0.5,0,0.9-0.2,1.2-0.5c0.3-0.3,0.5-0.7,0.5-1.2v0v0c0-0.5-0.2-0.9-0.5-1.2v0 C279.6,359.5,279.2,359.3,278.7,359.3z"></path> <path class="st5" d="M323.9,417h26.4c1.1,0,2,0.9,2,2v5.9h-18.4v-5.6v-0.6h-0.6h-11.3C322.1,417.7,322.9,417,323.9,417L323.9,417z M352.2,426L352.2,426v30.9c0,1.1-0.9,2-2,2h-26.4c-1.1,0-2-0.9-2-2V426H352.2L352.2,426z M321.9,424.8L321.9,424.8h10.7v0v-4.9 h-10.7V424.8L321.9,424.8z M335.3,418.7L335.3,418.7v2.8h8v-2.8H335.3L335.3,418.7z M337.1,433.4L337.1,433.4L337.1,433.4 c2.3,0,4.3,0.9,5.8,2.4c0.9,0.9,1.6,2,2,3.3h1.7c-1.1-4.2-4.9-7.3-9.5-7.3c-5.4,0-9.8,4.4-9.8,9.8c0,5.4,4.4,9.8,9.8,9.8 c4.5,0,8.3-3.1,9.4-7.3h-1.7c-0.4,1.3-1.1,2.4-2,3.3c-1.5,1.5-3.5,2.4-5.8,2.4h0h0c-2.3,0-4.3-0.9-5.8-2.4v0 c-1.5-1.5-2.4-3.5-2.4-5.8v0v0c0-2.3,0.9-4.3,2.4-5.8C332.8,434.3,334.8,433.4,337.1,433.4L337.1,433.4L337.1,433.4z M337.1,435.2 L337.1,435.2L337.1,435.2L337.1,435.2c-1.8,0-3.3,0.7-4.5,1.9c-1.2,1.2-1.9,2.7-1.9,4.5v0v0c0,1.8,0.7,3.3,1.9,4.5l0,0 c1.2,1.2,2.7,1.9,4.5,1.9h0h0c1.7,0,3.3-0.7,4.5-1.9c1.2-1.2,1.9-2.7,1.9-4.5v0v0c0-1.7-0.7-3.3-1.9-4.5 C340.4,436,338.8,435.2,337.1,435.2L337.1,435.2z M347.7,418L347.7,418L347.7,418c-0.8,0-1.6,0.3-2.1,0.9l0,0 c-0.5,0.5-0.9,1.3-0.9,2.1v0v0c0,0.8,0.3,1.6,0.9,2.1c0.5,0.5,1.3,0.9,2.1,0.9h0h0c0.8,0,1.6-0.3,2.1-0.9c0.5-0.5,0.9-1.3,0.9-2.1v0 v0c0-0.8-0.3-1.6-0.9-2.1l0,0C349.3,418.4,348.6,418,347.7,418L347.7,418L347.7,418z M347.7,419.3L347.7,419.3L347.7,419.3 L347.7,419.3c-0.5,0-0.9,0.2-1.2,0.5h0c-0.3,0.3-0.5,0.7-0.5,1.2v0v0c0,0.5,0.2,0.9,0.5,1.2c0.3,0.3,0.7,0.5,1.2,0.5h0h0 c0.5,0,0.9-0.2,1.2-0.5c0.3-0.3,0.5-0.7,0.5-1.2v0v0c0-0.5-0.2-0.9-0.5-1.2v0C348.6,419.5,348.2,419.3,347.7,419.3z"></path> <g> <path class="st5" d="M467.7,456.2h-26.4c-1,0-1.8,0.7-1.9,1.7h0v6.2h10.7l1.2,0v0h18.4v-5.9C469.7,457,468.8,456.2,467.7,456.2z M460.8,460.6h-8v-2.8h8V460.6z"></path> <path class="st5" d="M439.4,496c0,1.1,0.9,2,2,2h26.4c1.1,0,2-0.9,2-2v-30.9h-30.3V496z"></path> </g> <path class="st5" d="M720.1,368.5h38.2c1.4,0,2.6,1.2,2.6,2.6v23.1c0,1.4-1.2,2.6-2.6,2.6h-38.2c-1.4,0-2.6-1.2-2.6-2.6v-23.1 C717.5,369.6,718.7,368.5,720.1,368.5L720.1,368.5z M758.4,393L758.4,393c0.5,0,0.9-0.4,0.9-0.9c0-0.5-0.4-0.9-0.9-0.9 s-0.9,0.4-0.9,0.9C757.5,392.6,757.9,393,758.4,393L758.4,393z M755.9,392.9L755.9,392.9c0.5,0,0.9-0.4,0.9-0.9 c0-0.5-0.4-0.9-0.9-0.9c-0.5,0-0.9,0.4-0.9,0.9C755,392.5,755.4,392.9,755.9,392.9L755.9,392.9z M753.5,392.9L753.5,392.9 c0.5,0,0.9-0.4,0.9-0.9c0-0.5-0.4-0.9-0.9-0.9c-0.5,0-0.9,0.4-0.9,0.9C752.6,392.5,753,392.9,753.5,392.9L753.5,392.9z M751.7,372.4 L751.7,372.4v3.3h7.6v-3.3H751.7L751.7,372.4z M756.4,386.7L756.4,386.7L756.4,386.7c0.9,0,1.7-0.4,2.2-0.9c0.6-0.6,0.9-1.4,0.9-2.2 v0v0c0-0.9-0.4-1.7-0.9-2.2c-0.6-0.6-1.4-0.9-2.2-0.9h0h0c-0.9,0-1.7,0.4-2.2,0.9c-0.6,0.6-0.9,1.4-0.9,2.2v0v0 c0,0.9,0.4,1.7,0.9,2.2C754.8,386.3,755.6,386.7,756.4,386.7L756.4,386.7L756.4,386.7z M756.4,385.3L756.4,385.3L756.4,385.3 L756.4,385.3c0.5,0,1-0.2,1.3-0.5c0.3-0.3,0.5-0.8,0.5-1.3v0v0c0-0.5-0.2-1-0.5-1.3c-0.3-0.3-0.8-0.5-1.3-0.5h0h0 c-0.5,0-1,0.2-1.3,0.5c-0.3,0.3-0.5,0.8-0.5,1.3v0v0c0,0.5,0.2,1,0.5,1.3C755.5,385.1,755.9,385.3,756.4,385.3L756.4,385.3z M750,390.8L750,390.8h0.9c0.7,0,1.3-0.7,1.3-1.5v-10.1c0-0.8-0.6-1.5-1.3-1.5H750h-1.1c-0.6,0-1.1,0.7-1.1,1.5v10.1 c0,0.8,0.5,1.5,1.1,1.5H750L750,390.8z M750,377.7L750,377.7v-5.6h-26.9c-1.1,0-1.9,0.9-1.9,2v17.1c0,1.1,0.9,2,1.9,2H750v-2.3 V377.7z"></path> <path class="st5" d="M662.4,401.9h21.2c1.7,0,3.1,1.4,3.1,3.1v34.7h-27.5V405C659.3,403.3,660.7,401.9,662.4,401.9L662.4,401.9z M686.7,441.2L686.7,441.2v16.6c0,1.7-1.4,3.1-3.1,3.1h-21.2c-1.7,0-3.1-1.4-3.1-3.1v-16.6H686.7L686.7,441.2z M661.7,436.8 L661.7,436.8h1.7v-15.6h-1.7V436.8L661.7,436.8z M661.7,453.4L661.7,453.4h1.7v-9.2h-1.7V453.4z"></path> <path class="st5" d="M765.5,305.8h8.4c2,0,3.7,1.7,3.7,3.7v28.3h-15.8v-28.3C761.8,307.5,763.5,305.8,765.5,305.8L765.5,305.8z"></path> <path class="st5" d="M789.9,339.5L789.9,339.5v3c0,2-1.7,3.7-3.7,3.7h-33c-2,0-3.7-1.7-3.7-3.7v-3H789.9L789.9,339.5z"></path> <g> <path class="st5" d="M442.5,35.6h-33c-1.9,0-3.5,1.5-3.6,3.3c0.2,1.9,1.7,3.4,3.6,3.4h33c1.9,0,3.5-1.5,3.6-3.3 C446,37.1,444.4,35.6,442.5,35.6z"></path> </g> <path class="st5" d="M215.1,236.6l0.9,0l-8.7,26h-1.7L215.1,236.6L215.1,236.6z M231.3,264.5L231.3,264.5c0.8,0.7,1.6,1.6,1.9,2.7 c0.3,1,0.6,2,0.5,3.1c-0.1,0.8-0.5,2.4-1.5,2.2c-0.5-0.1-0.9-0.6-0.8-1.1c0.3-2.6-0.2-4-1-6.3C230.1,264.3,230.7,263.8,231.3,264.5 L231.3,264.5z M232.6,263.6L232.6,263.6h-13.6c-1.6,2.3-2.5,5.3-2.5,8.7c0,4.8,2,9,4.9,11.2h8.8c0.7-0.5,1.4-1.2,2-1.9h1.8V281 c0,0,0,0,0.1,0v0c0,0,0,0,0,0l0,0c0.2-0.1,0.4-0.1,0.7-0.1c0.2,0,0.5,0,0.8,0c0,0,0,0,0,0c1.4,0,2.9,0.4,3.8,1.1 c2.1,1.5,1.5,4,1,6.1c-0.3,1.1-0.5,2-0.4,2.8c0.1,1.2,1,1.5,2,1.3c1.1-0.1,2.5-0.8,3.2-1.1c0.2-0.1,0.1-0.1,0.2-0.1v-1 c-0.2,0-0.4,0.1-0.7,0.2c-0.6,0.3-1.9,0.9-2.8,1c-0.5,0.1-0.8,0-0.9-0.4c-0.1-0.6,0.2-1.5,0.4-2.5c0.6-2.4,1.3-5.3-1.4-7.2 c-1.1-0.8-2.9-1.3-4.4-1.3h0c-0.3,0-0.6,0-0.9,0c-0.2,0-0.4,0.1-0.6,0.1v-0.5l-0.5,0c1-2,1.6-4.5,1.6-7.1 C235.1,268.9,234.1,265.9,232.6,263.6L232.6,263.6z M209.2,262.6L209.2,262.6h28.3l-5.6-26.1l-6.1-0.1l-8.7,0.1L209.2,262.6 L209.2,262.6z M232.9,236.5L232.9,236.5l1.4,0l7.8,26.1h-2.9L232.9,236.5L232.9,236.5z M235.4,236.6L235.4,236.6l1,0l9.5,26h-2.1 L235.4,236.6z"></path> <path class="st6" d="M227.3,317.5h12.2l1-1.9h-13.3V317.5L227.3,317.5z M223.2,302.7L223.2,302.7h29.5c1,0,1.9,0.8,1.9,1.9v32.9 c0,1-0.8,1.9-1.9,1.9h-29.5c-1,0-1.9-0.8-1.9-1.9v-3.7h23.7V332v-0.8v-20.4H237v1.4c0,0.4-0.5,0.8-1.1,0.8h-4.2 c-0.6,0-1.1-0.4-1.1-0.8v-1.4h-9.3v-6.2C221.4,303.5,222.2,302.7,223.2,302.7L223.2,302.7z M225.4,317.8L225.4,317.8h-2l-4.2,6.6 c-0.3,0.4-0.8,0.5-1.2,0.3c-0.4-0.3-0.5-0.8-0.3-1.2l4.4-7h0c0.2-0.2,0.4-0.4,0.7-0.4h2.9v-1.2c0-0.4,0.3-0.7,0.7-0.7h15.2v0 c0.1,0,0.2,0,0.3,0.1c0.4,0.2,0.5,0.6,0.3,1l-1.4,2.6c0.2,0.1,0.4,0.3,0.6,0.5c0.5,0.5,0.8,1.1,0.8,1.8h0v0v9.9v0h0 c0,0.7-0.3,1.4-0.8,1.8c-0.5,0.5-1.1,0.8-1.8,0.8v0h0h-13.3h0v0c-0.7,0-1.4-0.3-1.8-0.8l0,0c-0.5-0.5-0.8-1.1-0.8-1.8h0v0v-9.9v0h0 c0-0.7,0.3-1.4,0.8-1.8C224.9,318.1,225.1,317.9,225.4,317.8L225.4,317.8z M239.8,319.3L239.8,319.3h-13.3h0v0 c-0.2,0-0.5,0.1-0.6,0.3c-0.2,0.2-0.3,0.4-0.3,0.6h0v0v9.9v0h0c0,0.2,0.1,0.5,0.3,0.6v0c0.2,0.2,0.4,0.3,0.6,0.3v0h0h13.3h0v0 c0.2,0,0.5-0.1,0.6-0.3c0.2-0.2,0.3-0.4,0.3-0.6h0v0v-9.9v0h0c0-0.2-0.1-0.5-0.3-0.6C240.3,319.3,240.1,319.2,239.8,319.3 L239.8,319.3L239.8,319.3z"></path> <path class="st5" d="M261.8,118.6c1.1,0,1.9,0.9,1.9,1.9c0,0.7-0.3,1.2-0.8,1.6h4.8v0h0v0c1.4,0,2.7,0.6,3.7,1.6 c0.9,0.9,1.4,2.2,1.5,3.6h0.5c0.6,0,1.2,0.5,1.2,1.2c0,0.6-0.5,1.2-1.2,1.2h-0.5v6.6h0.5c0.6,0,1.2,0.5,1.2,1.2 c0,0.6-0.5,1.2-1.2,1.2h-0.5v6.7h0.5c0.6,0,1.2,0.5,1.2,1.2c0,0.6-0.5,1.2-1.2,1.2h-0.5v7.5c0.6,0.2,1.1,0.9,1.3,1.6l1.8,7.3 c0.2,0.9-0.8,1.7-1.7,1.7h-12.5h-12.5c-0.9,0-1.9-0.8-1.7-1.7l1.8-7.3c0.2-0.7,0.6-1.4,1.3-1.6v-7.5h-0.5c-0.6,0-1.2-0.5-1.2-1.2 c0-0.6,0.5-1.2,1.2-1.2h0.5v-6.7h-0.5c-0.6,0-1.2-0.5-1.2-1.2c0-0.6,0.5-1.2,1.2-1.2h0.5v-6.6h-0.5c-0.6,0-1.2-0.5-1.2-1.2 c0-0.6,0.5-1.2,1.2-1.2h0.5c0.1-1.4,0.6-2.6,1.5-3.6c0.9-1,2.2-1.6,3.7-1.6v0h0v0h4.8c-0.5-0.3-0.8-0.9-0.8-1.6 C259.9,119.5,260.7,118.6,261.8,118.6L261.8,118.6z M261.8,156.7L261.8,156.7L261.8,156.7c-1,0-1.9,0.4-2.6,1.1h0 c-0.7,0.7-1.1,1.6-1.1,2.6h0v0v0h0c0,1,0.4,1.9,1.1,2.6c0.7,0.7,1.6,1.1,2.6,1.1v0h0h0v0c1,0,1.9-0.4,2.6-1.1 c0.7-0.7,1.1-1.6,1.1-2.6h0l0,0v0h0c0-1-0.4-1.9-1.1-2.6C263.7,157.1,262.8,156.7,261.8,156.7L261.8,156.7L261.8,156.7L261.8,156.7z M261.8,158.3L261.8,158.3L261.8,158.3L261.8,158.3L261.8,158.3c-0.6,0-1.1,0.2-1.4,0.6l0,0c-0.4,0.4-0.6,0.9-0.6,1.4h0v0v0h0 c0,0.6,0.2,1.1,0.6,1.4c0.4,0.4,0.9,0.6,1.4,0.6v0h0h0v0c0.6,0,1.1-0.2,1.4-0.6c0.4-0.4,0.6-0.9,0.6-1.4h0l0,0v0h0 c0-0.6-0.2-1.1-0.6-1.4C262.9,158.5,262.4,158.3,261.8,158.3L261.8,158.3z M270.6,129.6H253v6.6h17.6V129.6L270.6,129.6z M270.6,138.6H253v6.7h17.6V138.6L270.6,138.6z M270.6,147.6H253v7.4h8.8h8.8V147.6z"></path> <path class="st6" d="M693.6,131.9h29.9h29.9h0v0c0.9,0,1.8,0.3,2.4,0.9c0.7,0.6,1.1,1.4,1.1,2.3h0v0v0.1v7c0,1.8-0.7,4-1.5,6 c-0.1,0.3-0.3,0.7-0.5,1.1c-0.2,0.4-0.3,0.7-0.5,1l0,0c-0.3,0.6-0.8,1.1-1.4,1.4c-0.1,0.1-0.2,0.1-0.3,0.2c-0.7,0.3-1.5,0.4-2.3,0.4 v0h0h-26.8h-26.8h0v0c-0.8,0-1.6-0.1-2.3-0.4c-0.1-0.1-0.2-0.1-0.3-0.2c-0.6-0.3-1.1-0.8-1.4-1.4l0,0c-0.2-0.3-0.3-0.7-0.5-1 c-0.2-0.4-0.4-0.8-0.5-1.1c-0.9-2-1.5-4.1-1.5-6v-7v-0.1v0h0c0-0.9,0.4-1.7,1.1-2.3C691.8,132.3,692.7,131.9,693.6,131.9 L693.6,131.9L693.6,131.9L693.6,131.9z M697.8,149.5h51.1c0.5,0,0.9-0.4,0.9-0.9c0-0.5-0.4-0.9-0.9-0.9h-51.1 c-0.5,0-0.9,0.4-0.9,0.9C696.9,149.1,697.3,149.5,697.8,149.5L697.8,149.5z M696.3,147h54.5c0.5,0,0.9-0.4,0.9-0.9 c0-0.5-0.4-0.9-0.9-0.9h-54.5c-0.5,0-0.9,0.4-0.9,0.9C695.4,146.6,695.8,147,696.3,147L696.3,147z M702.3,136.5h42.4 c0.5,0,0.9-0.4,0.9-0.9c0-0.5-0.4-0.9-0.9-0.9h-42.4c-0.5,0-0.9,0.4-0.9,0.9C701.4,136.1,701.8,136.5,702.3,136.5L702.3,136.5z M692.2,141.4h62.5v-6.1v-0.1v0h0c0-0.3-0.1-0.5-0.4-0.7c-0.3-0.2-0.6-0.4-1-0.4v0h0h-29.9h-29.9h0v0c-0.4,0-0.8,0.1-1,0.4 c-0.2,0.2-0.4,0.4-0.4,0.7h0v0v0.1V141.4L692.2,141.4z M754.7,143.1h-62.4c0.2,1.3,0.7,2.8,1.3,4.3c0.2,0.4,0.3,0.7,0.5,1 c0.2,0.3,0.3,0.7,0.5,1l0,0c0.1,0.2,0.3,0.4,0.6,0.6c0.1,0,0.1,0.1,0.2,0.1c0.4,0.2,0.9,0.3,1.4,0.3v0h0h26.8h26.8h0v0 c0.5,0,1-0.1,1.4-0.3c0.1,0,0.1-0.1,0.2-0.1c0.3-0.1,0.5-0.3,0.6-0.6l0,0c0.2-0.3,0.3-0.6,0.5-1c0.1-0.3,0.3-0.6,0.5-1 C754.1,145.9,754.6,144.4,754.7,143.1z"></path> <path class="st6" d="M629.4,75.6h29.9h29.9h0v0c0.9,0,1.8,0.3,2.4,0.9c0.7,0.6,1.1,1.4,1.1,2.3h0v0v0.1v7c0,1.8-0.7,4-1.5,6 c-0.1,0.3-0.3,0.7-0.5,1.1c-0.2,0.4-0.3,0.7-0.5,1l0,0c-0.3,0.6-0.8,1.1-1.4,1.4c-0.1,0.1-0.2,0.1-0.3,0.2c-0.7,0.3-1.5,0.4-2.3,0.4 v0h0h-26.8h-26.8h0v0c-0.8,0-1.6-0.1-2.3-0.4c-0.1-0.1-0.2-0.1-0.3-0.2c-0.6-0.3-1.1-0.8-1.4-1.4l0,0c-0.2-0.3-0.3-0.7-0.5-1 c-0.2-0.4-0.4-0.8-0.5-1.1c-0.9-2-1.5-4.1-1.5-6v-7v-0.1v0h0c0-0.9,0.4-1.7,1.1-2.3C627.6,75.9,628.4,75.6,629.4,75.6L629.4,75.6 L629.4,75.6L629.4,75.6z M633.6,93.2h51.1c0.5,0,0.9-0.4,0.9-0.9c0-0.5-0.4-0.9-0.9-0.9h-51.1c-0.5,0-0.9,0.4-0.9,0.9 C632.7,92.8,633.1,93.2,633.6,93.2L633.6,93.2z M632,90.6h54.5c0.5,0,0.9-0.4,0.9-0.9c0-0.5-0.4-0.9-0.9-0.9H632 c-0.5,0-0.9,0.4-0.9,0.9C631.2,90.2,631.5,90.6,632,90.6L632,90.6z M638,80.2h42.4c0.5,0,0.9-0.4,0.9-0.9c0-0.5-0.4-0.9-0.9-0.9H638 c-0.5,0-0.9,0.4-0.9,0.9C637.2,79.8,637.6,80.2,638,80.2L638,80.2z M628,85h62.5v-6.1v-0.1v0h0c0-0.3-0.1-0.5-0.4-0.7 c-0.3-0.2-0.6-0.4-1-0.4v0h0h-29.9h-29.9h0v0c-0.4,0-0.8,0.1-1,0.4c-0.2,0.2-0.4,0.4-0.4,0.7h0v0v0.1V85L628,85z M690.5,86.7H628 c0.2,1.3,0.7,2.8,1.3,4.3c0.2,0.4,0.3,0.7,0.5,1c0.2,0.3,0.3,0.7,0.5,1l0,0c0.1,0.2,0.3,0.4,0.6,0.6c0.1,0,0.1,0.1,0.2,0.1 c0.4,0.2,0.9,0.3,1.4,0.3v0h0h26.8h26.8h0v0c0.5,0,1-0.1,1.4-0.3c0.1,0,0.1-0.1,0.2-0.1c0.3-0.1,0.5-0.3,0.6-0.6l0,0 c0.2-0.3,0.3-0.6,0.5-1c0.1-0.3,0.3-0.6,0.5-1C689.8,89.6,690.3,88.1,690.5,86.7z"></path> <g> <g> <path class="st6" d="M728.1,196.5h65.7l-0.2,1.5h-4.4l-2.7,8.8c0,0-1.5,5.7-6.7,5.7c-5.3,0-36.3-0.1-36.3-0.1s-5.6,0.4-7.8-4.4 c-0.6-1.1-3.1-10.1-3.1-10.1h-4.4L728.1,196.5z"></path> <path class="st6" d="M734.4,196.5v-13.9c0,0-0.1-6.3,4.8-6.3c5,0,5.9,4.1,5.9,5.9h-1.2c0,0-0.3-4.6-4.8-4.5 c-2.9,0.3-3.4,3.7-3.4,5c0,1.2,0,13.7,0,13.7H734.4z"></path> <path class="st6" d="M745.5,185.2c0,0.5-0.4,0.8-0.8,0.8s-0.8-0.4-0.8-0.8c0-0.5,0.4-0.8,0.8-0.8S745.5,184.7,745.5,185.2z"></path> <path class="st6" d="M745.8,189.1c0,0.5-0.4,0.9-0.9,0.9c-0.5,0-0.9-0.4-0.9-0.9c0-0.5,0.4-0.9,0.9-0.9 C745.4,188.2,745.8,188.6,745.8,189.1z"></path> <path class="st6" d="M745.9,193c0,0.6-0.5,1-1,1c-0.6,0-1-0.5-1-1c0-0.6,0.5-1,1-1C745.5,192,745.9,192.4,745.9,193z"></path> </g> </g> <g> <g> <path class="st4" d="M257.5,10.3L251,25h-2.1l-6.5-14.7h2.3l5.3,12.1l5.3-12.1H257.5z"></path> <path class="st4" d="M256.7,19.5c0-3.3,2.5-5.7,5.8-5.7s5.8,2.4,5.8,5.7s-2.4,5.7-5.8,5.7S256.7,22.8,256.7,19.5z M266.2,19.5 c0-2.4-1.6-3.9-3.7-3.9s-3.8,1.5-3.8,3.9s1.6,3.9,3.8,3.9S266.2,21.8,266.2,19.5z"></path> <path class="st4" d="M270.5,9.4h2V25h-2V9.4z"></path> <path class="st4" d="M285.8,20.1h-9c0.3,2,1.8,3.3,4,3.3c1.3,0,2.4-0.4,3.2-1.3l1.1,1.3c-1,1.2-2.5,1.8-4.4,1.8 c-3.6,0-6-2.4-6-5.7c0-3.3,2.4-5.7,5.6-5.7s5.5,2.3,5.5,5.7C285.9,19.7,285.9,19.9,285.8,20.1z M276.8,18.7h7.1 c-0.2-1.9-1.6-3.2-3.6-3.2C278.5,15.5,277,16.8,276.8,18.7z"></path> <path class="st4" d="M294.4,24.4c-0.6,0.5-1.5,0.8-2.4,0.8c-2.2,0-3.5-1.2-3.5-3.5v-6.1h-1.9v-1.7h1.9v-2.4h2v2.4h3.2v1.7h-3.2v6 c0,1.2,0.6,1.9,1.7,1.9c0.6,0,1.2-0.2,1.6-0.5L294.4,24.4z"></path> <path class="st4" d="M294.9,23.8l0.8-1.6c0.9,0.7,2.5,1.2,3.9,1.2c1.9,0,2.6-0.6,2.6-1.5c0-2.5-7-0.3-7-4.8c0-2,1.8-3.3,4.6-3.3 c1.4,0,3.1,0.4,4.1,1l-0.9,1.6c-1-0.7-2.1-0.9-3.2-0.9c-1.8,0-2.6,0.7-2.6,1.5c0,2.6,7.1,0.5,7.1,4.8c0,2-1.8,3.3-4.8,3.3 C297.7,25.1,295.8,24.6,294.9,23.8z"></path> <path class="st4" d="M321.5,20.1h-9c0.3,2,1.8,3.3,4,3.3c1.3,0,2.4-0.4,3.2-1.3l1.1,1.3c-1,1.2-2.5,1.8-4.4,1.8 c-3.6,0-6-2.4-6-5.7c0-3.3,2.4-5.7,5.6-5.7s5.5,2.3,5.5,5.7C321.5,19.7,321.5,19.9,321.5,20.1z M312.4,18.7h7.1 c-0.2-1.9-1.6-3.2-3.6-3.2C314.1,15.5,312.6,16.8,312.4,18.7z"></path> <path class="st4" d="M330,24.4c-0.6,0.5-1.5,0.8-2.4,0.8c-2.2,0-3.5-1.2-3.5-3.5v-6.1h-1.9v-1.7h1.9v-2.4h2v2.4h3.2v1.7h-3.2v6 c0,1.2,0.6,1.9,1.7,1.9c0.6,0,1.2-0.2,1.6-0.5L330,24.4z"></path> <path class="st4" d="M335.7,23.8l0.8-1.6c0.9,0.7,2.5,1.2,3.9,1.2c1.9,0,2.6-0.6,2.6-1.5c0-2.5-7-0.3-7-4.8c0-2,1.8-3.3,4.6-3.3 c1.4,0,3.1,0.4,4.1,1l-0.9,1.6c-1-0.7-2.1-0.9-3.2-0.9c-1.8,0-2.6,0.7-2.6,1.5c0,2.6,7.1,0.5,7.1,4.8c0,2-1.8,3.3-4.8,3.3 C338.4,25.1,336.6,24.6,335.7,23.8z"></path> <path class="st4" d="M353.3,24.4c-0.6,0.5-1.5,0.8-2.4,0.8c-2.2,0-3.5-1.2-3.5-3.5v-6.1h-1.9v-1.7h1.9v-2.4h2v2.4h3.2v1.7h-3.2v6 c0,1.2,0.6,1.9,1.7,1.9c0.6,0,1.2-0.2,1.6-0.5L353.3,24.4z"></path> <path class="st4" d="M353.8,19.5c0-3.3,2.5-5.7,5.8-5.7s5.8,2.4,5.8,5.7s-2.4,5.7-5.8,5.7S353.8,22.8,353.8,19.5z M363.4,19.5 c0-2.4-1.6-3.9-3.7-3.9s-3.8,1.5-3.8,3.9s1.6,3.9,3.8,3.9S363.4,21.8,363.4,19.5z"></path> <path class="st4" d="M373.6,13.8v2c-0.2,0-0.3,0-0.5,0c-2.2,0-3.5,1.3-3.5,3.8V25h-2V13.9h1.9v1.9 C370.3,14.5,371.7,13.8,373.6,13.8z"></path> <path class="st4" d="M385.5,20.1h-9c0.3,2,1.8,3.3,4,3.3c1.3,0,2.4-0.4,3.2-1.3l1.1,1.3c-1,1.2-2.5,1.8-4.4,1.8 c-3.6,0-6-2.4-6-5.7c0-3.3,2.4-5.7,5.6-5.7s5.5,2.3,5.5,5.7C385.6,19.7,385.5,19.9,385.5,20.1z M376.5,18.7h7.1 c-0.2-1.9-1.6-3.2-3.6-3.2C378.1,15.5,376.7,16.8,376.5,18.7z"></path> <path class="st4" d="M386.4,23.8l0.8-1.6c0.9,0.7,2.5,1.2,3.9,1.2c1.9,0,2.6-0.6,2.6-1.5c0-2.5-7-0.3-7-4.8c0-2,1.8-3.3,4.6-3.3 c1.4,0,3.1,0.4,4.1,1l-0.9,1.6c-1-0.7-2.1-0.9-3.2-0.9c-1.8,0-2.6,0.7-2.6,1.5c0,2.6,7.1,0.5,7.1,4.8c0,2-1.8,3.3-4.8,3.3 C389.2,25.1,387.3,24.6,386.4,23.8z"></path> </g> </g> <g> <g> <path class="st4" d="M111.1,76.5c0-4.3,3.3-7.5,7.8-7.5c2.3,0,4.2,0.8,5.6,2.3l-1.4,1.3c-1.1-1.2-2.5-1.7-4.1-1.7 c-3.3,0-5.8,2.4-5.8,5.6s2.5,5.6,5.8,5.6c1.6,0,3-0.6,4.1-1.8l1.4,1.3c-1.3,1.5-3.3,2.3-5.6,2.3C114.4,84,111.1,80.8,111.1,76.5z"></path> <path class="st4" d="M135.4,77.1v6.7h-1.9v-1.5c-0.7,1-1.9,1.6-3.7,1.6c-2.5,0-4.1-1.3-4.1-3.3c0-1.8,1.2-3.3,4.5-3.3h3.2V77 c0-1.7-1-2.7-3-2.7c-1.3,0-2.7,0.5-3.5,1.2L126,74c1.2-0.9,2.8-1.4,4.6-1.4C133.6,72.6,135.4,74.1,135.4,77.1z M133.3,80.4v-1.6 h-3.1c-2,0-2.6,0.8-2.6,1.7c0,1.1,0.9,1.8,2.5,1.8C131.6,82.4,132.8,81.7,133.3,80.4z"></path> <path class="st4" d="M150.1,78.3c0,3.4-2.4,5.7-5.6,5.7c-1.6,0-3-0.6-3.9-1.8v5.8h-2V72.7h1.9v1.8c0.9-1.2,2.3-1.9,4-1.9 C147.7,72.6,150.1,74.9,150.1,78.3z M148.1,78.3c0-2.4-1.6-3.9-3.8-3.9c-2.1,0-3.7,1.6-3.7,3.9c0,2.4,1.6,3.9,3.7,3.9 C146.4,82.2,148.1,80.6,148.1,78.3z"></path> <path class="st4" d="M158.6,83.2c-0.6,0.5-1.5,0.8-2.4,0.8c-2.2,0-3.5-1.2-3.5-3.5v-6.1h-1.9v-1.7h1.9v-2.4h2v2.4h3.2v1.7h-3.2v6 c0,1.2,0.6,1.9,1.7,1.9c0.6,0,1.2-0.2,1.6-0.5L158.6,83.2z"></path> <path class="st4" d="M170.2,78.9h-9c0.3,2,1.8,3.3,4,3.3c1.3,0,2.4-0.4,3.2-1.3l1.1,1.3c-1,1.2-2.5,1.8-4.4,1.8 c-3.6,0-6-2.4-6-5.7c0-3.3,2.4-5.7,5.6-5.7s5.5,2.3,5.5,5.7C170.2,78.5,170.2,78.7,170.2,78.9z M161.2,77.5h7.1 c-0.2-1.9-1.6-3.2-3.6-3.2C162.8,74.3,161.4,75.6,161.2,77.5z"></path> <path class="st4" d="M182.9,72.7v11.1H181v-1.7c-0.8,1.2-2.2,1.8-3.8,1.8c-2.9,0-4.8-1.6-4.8-4.9v-6.4h2v6.2c0,2.2,1.1,3.3,3,3.3 c2.1,0,3.4-1.3,3.4-3.7v-5.8H182.9z"></path> <path class="st4" d="M192.2,72.6v2c-0.2,0-0.3,0-0.5,0c-2.2,0-3.5,1.3-3.5,3.8v5.5h-2V72.7h1.9v1.9 C188.8,73.3,190.2,72.6,192.2,72.6z"></path> <path class="st4" d="M198,82.6l0.8-1.6c0.9,0.7,2.5,1.2,3.9,1.2c1.9,0,2.6-0.6,2.6-1.5c0-2.5-7-0.3-7-4.8c0-2,1.8-3.3,4.6-3.3 c1.4,0,3.1,0.4,4.1,1l-0.9,1.6c-1-0.7-2.1-0.9-3.2-0.9c-1.8,0-2.6,0.7-2.6,1.5c0,2.6,7.1,0.5,7.1,4.8c0,2-1.8,3.3-4.8,3.3 C200.7,83.9,198.9,83.4,198,82.6z"></path> <path class="st4" d="M208.4,78.3c0-3.3,2.5-5.7,5.8-5.7s5.8,2.4,5.8,5.7s-2.4,5.7-5.8,5.7S208.4,81.6,208.4,78.3z M217.9,78.3 c0-2.4-1.6-3.9-3.7-3.9s-3.8,1.5-3.8,3.9s1.6,3.9,3.8,3.9S217.9,80.6,217.9,78.3z"></path> <path class="st4" d="M222.2,68.2h2v15.6h-2V68.2z"></path> <path class="st4" d="M236.3,77.1v6.7h-1.9v-1.5c-0.7,1-1.9,1.6-3.7,1.6c-2.5,0-4.1-1.3-4.1-3.3c0-1.8,1.2-3.3,4.5-3.3h3.2V77 c0-1.7-1-2.7-3-2.7c-1.3,0-2.7,0.5-3.5,1.2L227,74c1.2-0.9,2.8-1.4,4.6-1.4C234.6,72.6,236.3,74.1,236.3,77.1z M234.3,80.4v-1.6 h-3.1c-2,0-2.6,0.8-2.6,1.7c0,1.1,0.9,1.8,2.5,1.8C232.6,82.4,233.8,81.7,234.3,80.4z"></path> <path class="st4" d="M239.2,69.3c0-0.7,0.6-1.3,1.4-1.3s1.4,0.6,1.4,1.3c0,0.8-0.6,1.3-1.4,1.3C239.8,70.6,239.2,70,239.2,69.3z M239.6,72.7h2v11.1h-2V72.7z"></path> <path class="st4" d="M250.9,72.6v2c-0.2,0-0.3,0-0.5,0c-2.2,0-3.5,1.3-3.5,3.8v5.5h-2V72.7h1.9v1.9 C247.5,73.3,248.9,72.6,250.9,72.6z"></path> <path class="st4" d="M262.7,78.9h-9c0.3,2,1.8,3.3,4,3.3c1.3,0,2.4-0.4,3.2-1.3l1.1,1.3c-1,1.2-2.5,1.8-4.4,1.8 c-3.6,0-6-2.4-6-5.7c0-3.3,2.4-5.7,5.6-5.7c3.2,0,5.5,2.3,5.5,5.7C262.8,78.5,262.8,78.7,262.7,78.9z M253.7,77.5h7.1 c-0.2-1.9-1.6-3.2-3.6-3.2C255.4,74.3,253.9,75.6,253.7,77.5z"></path> </g> </g> <g> <g> <path class="st4" d="M24.8,202.3c0,3.2-2.3,5.1-6.1,5.1H15v4.5h-2.1v-14.7h5.7C22.5,197.2,24.8,199.1,24.8,202.3z M22.7,202.3 c0-2.1-1.4-3.3-4.1-3.3H15v6.6h3.6C21.3,205.6,22.7,204.4,22.7,202.3z"></path> <path class="st4" d="M26,206.3c0-3.3,2.5-5.7,5.8-5.7s5.8,2.4,5.8,5.7s-2.4,5.7-5.8,5.7S26,209.7,26,206.3z M35.5,206.3 c0-2.4-1.6-3.9-3.7-3.9S28,204,28,206.3s1.6,3.9,3.8,3.9S35.5,208.7,35.5,206.3z"></path> <path class="st4" d="M45.8,200.7v2c-0.2,0-0.3,0-0.5,0c-2.2,0-3.5,1.3-3.5,3.8v5.5h-2v-11.1h1.9v1.9 C42.5,201.3,43.9,200.7,45.8,200.7z"></path> <path class="st4" d="M54.5,211.3c-0.6,0.5-1.5,0.8-2.4,0.8c-2.2,0-3.5-1.2-3.5-3.5v-6.1h-1.9v-1.7h1.9v-2.4h2v2.4h3.2v1.7h-3.2v6 c0,1.2,0.6,1.9,1.7,1.9c0.6,0,1.2-0.2,1.6-0.5L54.5,211.3z"></path> <path class="st4" d="M66,207h-9c0.3,2,1.8,3.3,4,3.3c1.3,0,2.4-0.4,3.2-1.3l1.1,1.3c-1,1.2-2.5,1.8-4.4,1.8c-3.6,0-6-2.4-6-5.7 c0-3.3,2.4-5.7,5.6-5.7s5.5,2.3,5.5,5.7C66.1,206.6,66.1,206.8,66,207z M57,205.6h7.1c-0.2-1.9-1.6-3.2-3.6-3.2 C58.6,202.4,57.2,203.7,57,205.6z"></path> <path class="st4" d="M84,196.3v15.6H82v-1.8c-0.9,1.3-2.3,1.9-4,1.9c-3.3,0-5.6-2.3-5.6-5.7s2.4-5.7,5.6-5.7c1.6,0,3,0.6,3.9,1.8 v-6.1H84z M82,206.3c0-2.4-1.6-3.9-3.7-3.9c-2.1,0-3.8,1.5-3.8,3.9s1.6,3.9,3.8,3.9C80.4,210.3,82,208.7,82,206.3z"></path> <path class="st4" d="M97.3,207h-9c0.3,2,1.8,3.3,4,3.3c1.3,0,2.4-0.4,3.2-1.3l1.1,1.3c-1,1.2-2.5,1.8-4.4,1.8c-3.6,0-6-2.4-6-5.7 c0-3.3,2.4-5.7,5.6-5.7s5.5,2.3,5.5,5.7C97.3,206.6,97.3,206.8,97.3,207z M88.3,205.6h7.1c-0.2-1.9-1.6-3.2-3.6-3.2 C89.9,202.4,88.5,203.7,88.3,205.6z"></path> <path class="st4" d="M115.4,200.8v9.6c0,3.9-2,5.7-5.8,5.7c-2,0-4.1-0.6-5.3-1.7l1-1.6c1,0.9,2.6,1.4,4.3,1.4 c2.6,0,3.8-1.2,3.8-3.7v-0.9c-1,1.2-2.4,1.7-4,1.7c-3.2,0-5.6-2.2-5.6-5.4s2.4-5.4,5.6-5.4c1.7,0,3.2,0.6,4.1,1.8v-1.7H115.4z M113.4,206c0-2.2-1.6-3.6-3.8-3.6c-2.2,0-3.8,1.4-3.8,3.6c0,2.1,1.6,3.6,3.8,3.6C111.8,209.7,113.4,208.2,113.4,206z"></path> <path class="st4" d="M127.5,205.2v6.7h-1.9v-1.5c-0.7,1-1.9,1.6-3.7,1.6c-2.5,0-4.1-1.3-4.1-3.3c0-1.8,1.2-3.3,4.5-3.3h3.2v-0.4 c0-1.7-1-2.7-3-2.7c-1.3,0-2.7,0.5-3.5,1.2l-0.8-1.5c1.2-0.9,2.8-1.4,4.6-1.4C125.8,200.7,127.5,202.1,127.5,205.2z M125.5,208.5 V207h-3.1c-2,0-2.6,0.8-2.6,1.7c0,1.1,0.9,1.8,2.5,1.8C123.8,210.5,125,209.8,125.5,208.5z"></path> <path class="st4" d="M136.7,200.7v2c-0.2,0-0.3,0-0.5,0c-2.2,0-3.5,1.3-3.5,3.8v5.5h-2v-11.1h1.9v1.9 C133.4,201.3,134.7,200.7,136.7,200.7z"></path> <path class="st4" d="M147.5,205.2v6.7h-1.9v-1.5c-0.7,1-1.9,1.6-3.7,1.6c-2.5,0-4.1-1.3-4.1-3.3c0-1.8,1.2-3.3,4.5-3.3h3.2v-0.4 c0-1.7-1-2.7-3-2.7c-1.3,0-2.7,0.5-3.5,1.2l-0.8-1.5c1.2-0.9,2.8-1.4,4.6-1.4C145.7,200.7,147.5,202.1,147.5,205.2z M145.4,208.5 V207h-3.1c-2,0-2.6,0.8-2.6,1.7c0,1.1,0.9,1.8,2.5,1.8C143.7,210.5,144.9,209.8,145.4,208.5z"></path> <path class="st4" d="M161.4,200.8v9.6c0,3.9-2,5.7-5.8,5.7c-2,0-4.1-0.6-5.3-1.7l1-1.6c1,0.9,2.6,1.4,4.3,1.4 c2.6,0,3.8-1.2,3.8-3.7v-0.9c-1,1.2-2.4,1.7-4,1.7c-3.2,0-5.6-2.2-5.6-5.4s2.4-5.4,5.6-5.4c1.7,0,3.2,0.6,4.1,1.8v-1.7H161.4z M159.4,206c0-2.2-1.6-3.6-3.8-3.6c-2.2,0-3.8,1.4-3.8,3.6c0,2.1,1.6,3.6,3.8,3.6C157.8,209.7,159.4,208.2,159.4,206z"></path> <path class="st4" d="M174.7,207h-9c0.3,2,1.8,3.3,4,3.3c1.3,0,2.4-0.4,3.2-1.3l1.1,1.3c-1,1.2-2.5,1.8-4.4,1.8c-3.6,0-6-2.4-6-5.7 c0-3.3,2.4-5.7,5.6-5.7s5.5,2.3,5.5,5.7C174.8,206.6,174.7,206.8,174.7,207z M165.7,205.6h7.1c-0.2-1.9-1.6-3.2-3.6-3.2 C167.3,202.4,165.9,203.7,165.7,205.6z"></path> </g> </g> <g> <g> <path class="st4" d="M90.3,272.4v1.8H79.6v-14.7H90v1.8h-8.3v4.5h7.4v1.8h-7.4v4.7H90.3z"></path> <path class="st4" d="M91.7,268.6c0-3.3,2.5-5.7,5.9-5.7c2,0,3.7,0.8,4.5,2.4l-1.5,1c-0.7-1.1-1.8-1.6-3-1.6 c-2.2,0-3.8,1.5-3.8,3.9c0,2.4,1.6,3.9,3.8,3.9c1.2,0,2.3-0.5,3-1.6l1.5,1c-0.9,1.6-2.5,2.4-4.5,2.4 C94.2,274.3,91.7,272,91.7,268.6z"></path> <path class="st4" d="M104.1,258.6h2v15.6h-2V258.6z"></path> <path class="st4" d="M118.2,267.5v6.7h-1.9v-1.5c-0.7,1-1.9,1.6-3.7,1.6c-2.5,0-4.1-1.3-4.1-3.3c0-1.8,1.2-3.3,4.5-3.3h3.2v-0.4 c0-1.7-1-2.7-3-2.7c-1.3,0-2.7,0.5-3.5,1.2l-0.8-1.5c1.2-0.9,2.8-1.4,4.6-1.4C116.5,263,118.2,264.4,118.2,267.5z M116.2,270.8 v-1.6h-3.1c-2,0-2.6,0.8-2.6,1.7c0,1.1,0.9,1.8,2.5,1.8C114.5,272.8,115.7,272.1,116.2,270.8z"></path> <path class="st4" d="M121.1,259.6c0-0.7,0.6-1.3,1.4-1.3s1.4,0.6,1.4,1.3c0,0.8-0.6,1.3-1.4,1.3 C121.7,260.9,121.1,260.4,121.1,259.6z M121.4,263.1h2v11.1h-2V263.1z"></path> <path class="st4" d="M132.8,263v2c-0.2,0-0.3,0-0.5,0c-2.2,0-3.5,1.3-3.5,3.8v5.5h-2v-11.1h1.9v1.9 C129.4,263.6,130.8,263,132.8,263z"></path> <path class="st4" d="M143.5,267.5v6.7h-1.9v-1.5c-0.7,1-1.9,1.6-3.7,1.6c-2.5,0-4.1-1.3-4.1-3.3c0-1.8,1.2-3.3,4.5-3.3h3.2v-0.4 c0-1.7-1-2.7-3-2.7c-1.3,0-2.7,0.5-3.5,1.2l-0.8-1.5c1.2-0.9,2.8-1.4,4.6-1.4C141.8,263,143.5,264.4,143.5,267.5z M141.5,270.8 v-1.6h-3.1c-2,0-2.6,0.8-2.6,1.7c0,1.1,0.9,1.8,2.5,1.8C139.8,272.8,141,272.1,141.5,270.8z"></path> <path class="st4" d="M157.4,263.1v9.6c0,3.9-2,5.7-5.8,5.7c-2,0-4.1-0.6-5.3-1.7l1-1.6c1,0.9,2.6,1.4,4.3,1.4 c2.6,0,3.8-1.2,3.8-3.7V272c-1,1.2-2.4,1.7-4,1.7c-3.2,0-5.6-2.2-5.6-5.4s2.4-5.4,5.6-5.4c1.7,0,3.2,0.6,4.1,1.8v-1.7H157.4z M155.5,268.3c0-2.2-1.6-3.6-3.8-3.6c-2.2,0-3.8,1.4-3.8,3.6c0,2.1,1.6,3.6,3.8,3.6C153.9,272,155.5,270.5,155.5,268.3z"></path> <path class="st4" d="M170.8,269.3h-9c0.3,2,1.8,3.3,4,3.3c1.3,0,2.4-0.4,3.2-1.3l1.1,1.3c-1,1.2-2.5,1.8-4.4,1.8 c-3.6,0-6-2.4-6-5.7c0-3.3,2.4-5.7,5.6-5.7s5.5,2.3,5.5,5.7C170.8,268.9,170.8,269.1,170.8,269.3z M161.7,267.9h7.1 c-0.2-1.9-1.6-3.2-3.6-3.2C163.4,264.7,161.9,266,161.7,267.9z"></path> </g> </g> <g> <g> <path class="st4" d="M63.6,316.4c0,3.2-2.3,5.1-6.1,5.1h-3.6v4.5h-2.1v-14.7h5.7C61.2,311.3,63.6,313.2,63.6,316.4z M61.5,316.4 c0-2.1-1.4-3.3-4.1-3.3h-3.6v6.6h3.6C60,319.7,61.5,318.5,61.5,316.4z"></path> <path class="st4" d="M75.8,321.1h-9c0.3,2,1.8,3.3,4,3.3c1.3,0,2.4-0.4,3.2-1.3l1.1,1.3c-1,1.2-2.5,1.8-4.4,1.8 c-3.6,0-6-2.4-6-5.7c0-3.3,2.4-5.7,5.6-5.7s5.5,2.3,5.5,5.7C75.8,320.7,75.8,320.9,75.8,321.1z M66.8,319.7h7.1 c-0.2-1.9-1.6-3.2-3.6-3.2C68.4,316.5,67,317.8,66.8,319.7z"></path> <path class="st4" d="M84.4,325.4c-0.6,0.5-1.5,0.8-2.4,0.8c-2.2,0-3.5-1.2-3.5-3.5v-6.1h-1.9v-1.7h1.9v-2.4h2v2.4h3.2v1.7h-3.2v6 c0,1.2,0.6,1.9,1.7,1.9c0.6,0,1.2-0.2,1.6-0.5L84.4,325.4z"></path> <path class="st4" d="M85.9,311.4c0-0.7,0.6-1.3,1.4-1.3s1.4,0.6,1.4,1.3c0,0.8-0.6,1.3-1.4,1.3C86.5,312.7,85.9,312.2,85.9,311.4z M86.3,314.9h2V326h-2V314.9z"></path> <path class="st4" d="M97.9,325.4c-0.6,0.5-1.5,0.8-2.4,0.8c-2.2,0-3.5-1.2-3.5-3.5v-6.1H90v-1.7h1.9v-2.4h2v2.4h3.2v1.7h-3.2v6 c0,1.2,0.6,1.9,1.7,1.9c0.6,0,1.2-0.2,1.6-0.5L97.9,325.4z"></path> <path class="st4" d="M114.9,321.1h-9c0.3,2,1.8,3.3,4,3.3c1.3,0,2.4-0.4,3.2-1.3l1.1,1.3c-1,1.2-2.5,1.8-4.4,1.8 c-3.6,0-6-2.4-6-5.7c0-3.3,2.4-5.7,5.6-5.7s5.5,2.3,5.5,5.7C115,320.7,114.9,320.9,114.9,321.1z M105.9,319.7h7.1 c-0.2-1.9-1.6-3.2-3.6-3.2C107.5,316.5,106.1,317.8,105.9,319.7z M109.8,313.3h-1.9l2.9-2.7h2.6L109.8,313.3z"></path> <path class="st4" d="M117.2,310.4h2V326h-2V310.4z"></path> <path class="st4" d="M132.6,321.1h-9c0.3,2,1.8,3.3,4,3.3c1.3,0,2.4-0.4,3.2-1.3l1.1,1.3c-1,1.2-2.5,1.8-4.4,1.8 c-3.6,0-6-2.4-6-5.7c0-3.3,2.4-5.7,5.6-5.7c3.2,0,5.5,2.3,5.5,5.7C132.6,320.7,132.6,320.9,132.6,321.1z M123.6,319.7h7.1 c-0.2-1.9-1.6-3.2-3.6-3.2C125.2,316.5,123.8,317.8,123.6,319.7z"></path> <path class="st4" d="M133.9,320.4c0-3.3,2.5-5.7,5.9-5.7c2,0,3.7,0.8,4.5,2.4l-1.5,1c-0.7-1.1-1.8-1.6-3-1.6 c-2.2,0-3.8,1.5-3.8,3.9c0,2.4,1.6,3.9,3.8,3.9c1.2,0,2.3-0.5,3-1.6l1.5,1c-0.9,1.6-2.5,2.4-4.5,2.4 C136.3,326.1,133.9,323.8,133.9,320.4z"></path> <path class="st4" d="M152.8,325.4c-0.6,0.5-1.5,0.8-2.4,0.8c-2.2,0-3.5-1.2-3.5-3.5v-6.1h-1.9v-1.7h1.9v-2.4h2v2.4h3.2v1.7h-3.2v6 c0,1.2,0.6,1.9,1.7,1.9c0.6,0,1.2-0.2,1.6-0.5L152.8,325.4z"></path> <path class="st4" d="M160.7,314.8v2c-0.2,0-0.3,0-0.5,0c-2.2,0-3.5,1.3-3.5,3.8v5.5h-2v-11.1h1.9v1.9 C157.3,315.5,158.7,314.8,160.7,314.8z"></path> <path class="st4" d="M161.5,320.4c0-3.3,2.5-5.7,5.8-5.7s5.8,2.4,5.8,5.7s-2.4,5.7-5.8,5.7S161.5,323.8,161.5,320.4z M171,320.4 c0-2.4-1.6-3.9-3.7-3.9s-3.8,1.5-3.8,3.9s1.6,3.9,3.8,3.9S171,322.8,171,320.4z"></path> <path class="st4" d="M69.9,346.7v6.4h-2V347c0-2.2-1-3.3-2.9-3.3c-2,0-3.3,1.3-3.3,3.7v5.7h-2V347c0-2.2-1-3.3-2.9-3.3 c-2,0-3.3,1.3-3.3,3.7v5.7h-2V342h1.9v1.7c0.8-1.1,2.2-1.8,3.8-1.8c1.7,0,3.1,0.7,3.9,2.1c0.8-1.3,2.4-2.1,4.3-2.1 C68,341.9,69.9,343.5,69.9,346.7z"></path> <path class="st4" d="M83.1,348.2h-9c0.3,2,1.8,3.3,4,3.3c1.3,0,2.4-0.4,3.2-1.3l1.1,1.3c-1,1.2-2.5,1.8-4.4,1.8 c-3.6,0-6-2.4-6-5.7c0-3.3,2.4-5.7,5.6-5.7s5.5,2.3,5.5,5.7C83.2,347.8,83.2,348.1,83.1,348.2z M74.1,346.8h7.1 c-0.2-1.9-1.6-3.2-3.6-3.2C75.8,343.6,74.3,344.9,74.1,346.8z M78,340.4h-1.9l2.9-2.7h2.6L78,340.4z"></path> <path class="st4" d="M96,346.7v6.4h-2V347c0-2.2-1.1-3.3-3-3.3c-2.1,0-3.5,1.3-3.5,3.7v5.7h-2V342h1.9v1.7c0.8-1.1,2.2-1.8,4-1.8 C94.1,341.9,96,343.5,96,346.7z"></path> <path class="st4" d="M108.1,346.4v6.7h-1.9v-1.5c-0.7,1-1.9,1.6-3.7,1.6c-2.5,0-4.1-1.3-4.1-3.3c0-1.8,1.2-3.3,4.5-3.3h3.2v-0.4 c0-1.7-1-2.7-3-2.7c-1.3,0-2.7,0.5-3.5,1.2l-0.8-1.5c1.2-0.9,2.8-1.4,4.6-1.4C106.3,341.9,108.1,343.4,108.1,346.4z M106,349.7 v-1.6h-3.1c-2,0-2.6,0.8-2.6,1.7c0,1.1,0.9,1.8,2.5,1.8C104.3,351.7,105.5,351,106,349.7z"></path> <path class="st4" d="M122,342v9.6c0,3.9-2,5.7-5.8,5.7c-2,0-4.1-0.6-5.3-1.7l1-1.6c1,0.9,2.6,1.4,4.3,1.4c2.6,0,3.8-1.2,3.8-3.7 V351c-1,1.2-2.4,1.7-4,1.7c-3.2,0-5.6-2.2-5.6-5.4s2.4-5.4,5.6-5.4c1.7,0,3.2,0.6,4.1,1.8V342H122z M120,347.3 c0-2.2-1.6-3.6-3.8-3.6c-2.2,0-3.8,1.4-3.8,3.6c0,2.1,1.6,3.6,3.8,3.6C118.4,350.9,120,349.4,120,347.3z"></path> <path class="st4" d="M135.3,348.2h-9c0.3,2,1.8,3.3,4,3.3c1.3,0,2.4-0.4,3.2-1.3l1.1,1.3c-1,1.2-2.5,1.8-4.4,1.8 c-3.6,0-6-2.4-6-5.7c0-3.3,2.4-5.7,5.6-5.7c3.2,0,5.5,2.3,5.5,5.7C135.4,347.8,135.3,348.1,135.3,348.2z M126.3,346.8h7.1 c-0.2-1.9-1.6-3.2-3.6-3.2C127.9,343.6,126.5,344.9,126.3,346.8z"></path> <path class="st4" d="M143.6,341.9v2c-0.2,0-0.3,0-0.5,0c-2.2,0-3.5,1.3-3.5,3.8v5.5h-2V342h1.9v1.9 C140.3,342.6,141.7,341.9,143.6,341.9z"></path> </g> </g> <g> <g> <path class="st4" d="M112.3,384.1h2.1V397h8v1.8h-10.1V384.1z"></path> <path class="st4" d="M132.9,392.1v6.7H131v-1.5c-0.7,1-1.9,1.6-3.7,1.6c-2.5,0-4.1-1.3-4.1-3.3c0-1.8,1.2-3.3,4.5-3.3h3.2V392 c0-1.7-1-2.7-3-2.7c-1.3,0-2.7,0.5-3.5,1.2l-0.8-1.5c1.2-0.9,2.8-1.4,4.6-1.4C131.1,387.6,132.9,389,132.9,392.1z M130.8,395.4 v-1.6h-3.1c-2,0-2.6,0.8-2.6,1.7c0,1.1,0.9,1.8,2.5,1.8C129.1,397.4,130.3,396.7,130.8,395.4z"></path> <path class="st4" d="M145.7,387.7l-4.9,11.1h-2.1l-4.9-11.1h2.1l3.8,8.9l3.9-8.9H145.7z"></path> <path class="st4" d="M156.8,393.9h-9c0.3,2,1.8,3.3,4,3.3c1.3,0,2.4-0.4,3.2-1.3l1.1,1.3c-1,1.2-2.5,1.8-4.4,1.8 c-3.6,0-6-2.4-6-5.7c0-3.3,2.4-5.7,5.6-5.7s5.5,2.3,5.5,5.7C156.8,393.5,156.8,393.7,156.8,393.9z M147.8,392.5h7.1 c-0.2-1.9-1.6-3.2-3.6-3.2C149.4,389.3,148,390.6,147.8,392.5z"></path> <path class="st4" d="M158.6,392.2h5.6v1.7h-5.6V392.2z"></path> <path class="st4" d="M166.8,383.2h2v15.6h-2V383.2z"></path> <path class="st4" d="M171.8,384.2c0-0.7,0.6-1.3,1.4-1.3s1.4,0.6,1.4,1.3c0,0.8-0.6,1.3-1.4,1.3 C172.4,385.5,171.8,385,171.8,384.2z M172.2,387.7h2v11.1h-2V387.7z"></path> <path class="st4" d="M188,392.4v6.4h-2v-6.2c0-2.2-1.1-3.3-3-3.3c-2.1,0-3.5,1.3-3.5,3.7v5.7h-2v-11.1h1.9v1.7 c0.8-1.1,2.2-1.8,4-1.8C186.1,387.6,188,389.1,188,392.4z"></path> <path class="st4" d="M202,387.7v9.6c0,3.9-2,5.7-5.8,5.7c-2,0-4.1-0.6-5.3-1.7l1-1.6c1,0.9,2.6,1.4,4.3,1.4c2.6,0,3.8-1.2,3.8-3.7 v-0.9c-1,1.2-2.4,1.7-4,1.7c-3.2,0-5.6-2.2-5.6-5.4s2.4-5.4,5.6-5.4c1.7,0,3.2,0.6,4.1,1.8v-1.7H202z M200,392.9 c0-2.2-1.6-3.6-3.8-3.6c-2.2,0-3.8,1.4-3.8,3.6c0,2.1,1.6,3.6,3.8,3.6C198.4,396.6,200,395.1,200,392.9z"></path> <path class="st4" d="M215.3,393.9h-9c0.3,2,1.8,3.3,4,3.3c1.3,0,2.4-0.4,3.2-1.3l1.1,1.3c-1,1.2-2.5,1.8-4.4,1.8 c-3.6,0-6-2.4-6-5.7c0-3.3,2.4-5.7,5.6-5.7s5.5,2.3,5.5,5.7C215.3,393.5,215.3,393.7,215.3,393.9z M206.3,392.5h7.1 c-0.2-1.9-1.6-3.2-3.6-3.2C207.9,389.3,206.5,390.6,206.3,392.5z"></path> </g> </g> <g> <g> <path class="st4" d="M266.7,505.2h2.1v12.9h8v1.8h-10.1V505.2z"></path> <path class="st4" d="M287.3,513.2v6.7h-1.9v-1.5c-0.7,1-1.9,1.6-3.7,1.6c-2.5,0-4.1-1.3-4.1-3.3c0-1.8,1.2-3.3,4.5-3.3h3.2v-0.4 c0-1.7-1-2.7-3-2.7c-1.3,0-2.7,0.5-3.5,1.2l-0.8-1.5c1.2-0.9,2.8-1.4,4.6-1.4C285.5,508.7,287.3,510.1,287.3,513.2z M285.2,516.5 v-1.6h-3.1c-2,0-2.6,0.8-2.6,1.7c0,1.1,0.9,1.8,2.5,1.8C283.5,518.5,284.7,517.8,285.2,516.5z"></path> <path class="st4" d="M300.1,508.8l-4.9,11.1h-2.1l-4.9-11.1h2.1l3.8,8.9l3.9-8.9H300.1z"></path> <path class="st4" d="M311.2,515h-9c0.3,2,1.8,3.3,4,3.3c1.3,0,2.4-0.4,3.2-1.3l1.1,1.3c-1,1.2-2.5,1.8-4.4,1.8c-3.6,0-6-2.4-6-5.7 c0-3.3,2.4-5.7,5.6-5.7s5.5,2.3,5.5,5.7C311.2,514.6,311.2,514.8,311.2,515z M302.2,513.5h7.1c-0.2-1.9-1.6-3.2-3.6-3.2 C303.8,510.4,302.4,511.7,302.2,513.5z"></path> <path class="st4" d="M313,513.3h5.6v1.7H313V513.3z"></path> <path class="st4" d="M330.8,508.8l-4.9,11.1h-2.1l-4.9-11.1h2.1l3.8,8.9l3.9-8.9H330.8z"></path> <path class="st4" d="M340.6,513.2v6.7h-1.9v-1.5c-0.7,1-1.9,1.6-3.7,1.6c-2.5,0-4.1-1.3-4.1-3.3c0-1.8,1.2-3.3,4.5-3.3h3.2v-0.4 c0-1.7-1-2.7-3-2.7c-1.3,0-2.7,0.5-3.5,1.2l-0.8-1.5c1.2-0.9,2.8-1.4,4.6-1.4C338.9,508.7,340.6,510.1,340.6,513.2z M338.6,516.5 v-1.6h-3.1c-2,0-2.6,0.8-2.6,1.7c0,1.1,0.9,1.8,2.5,1.8C336.9,518.5,338.1,517.8,338.6,516.5z"></path> <path class="st4" d="M343.5,505.3c0-0.7,0.6-1.3,1.4-1.3s1.4,0.6,1.4,1.3c0,0.8-0.6,1.3-1.4,1.3 C344.1,506.6,343.5,506.1,343.5,505.3z M343.8,508.8h2v11.1h-2V508.8z"></path> <path class="st4" d="M347.8,518.7l0.8-1.6c0.9,0.7,2.5,1.2,3.9,1.2c1.9,0,2.6-0.6,2.6-1.5c0-2.5-7-0.3-7-4.8c0-2,1.8-3.3,4.6-3.3 c1.4,0,3.1,0.4,4.1,1l-0.9,1.6c-1-0.7-2.1-0.9-3.2-0.9c-1.8,0-2.6,0.7-2.6,1.5c0,2.6,7.1,0.5,7.1,4.8c0,2-1.8,3.3-4.8,3.3 C350.5,520,348.7,519.4,347.8,518.7z"></path> <path class="st4" d="M357.8,518.7l0.8-1.6c0.9,0.7,2.5,1.2,3.9,1.2c1.9,0,2.6-0.6,2.6-1.5c0-2.5-7-0.3-7-4.8c0-2,1.8-3.3,4.6-3.3 c1.4,0,3.1,0.4,4.1,1l-0.9,1.6c-1-0.7-2.1-0.9-3.2-0.9c-1.8,0-2.6,0.7-2.6,1.5c0,2.6,7.1,0.5,7.1,4.8c0,2-1.8,3.3-4.8,3.3 C360.5,520,358.7,519.4,357.8,518.7z"></path> <path class="st4" d="M379.2,515h-9c0.3,2,1.8,3.3,4,3.3c1.3,0,2.4-0.4,3.2-1.3l1.1,1.3c-1,1.2-2.5,1.8-4.4,1.8c-3.6,0-6-2.4-6-5.7 c0-3.3,2.4-5.7,5.6-5.7s5.5,2.3,5.5,5.7C379.2,514.6,379.2,514.8,379.2,515z M370.1,513.5h7.1c-0.2-1.9-1.6-3.2-3.6-3.2 C371.8,510.4,370.4,511.7,370.1,513.5z"></path> <path class="st4" d="M381.5,504.3h2v15.6h-2V504.3z"></path> <path class="st4" d="M386.8,504.3h2v15.6h-2V504.3z"></path> <path class="st4" d="M402.2,515h-9c0.3,2,1.8,3.3,4,3.3c1.3,0,2.4-0.4,3.2-1.3l1.1,1.3c-1,1.2-2.5,1.8-4.4,1.8c-3.6,0-6-2.4-6-5.7 c0-3.3,2.4-5.7,5.6-5.7s5.5,2.3,5.5,5.7C402.2,514.6,402.2,514.8,402.2,515z M393.1,513.5h7.1c-0.2-1.9-1.6-3.2-3.6-3.2 C394.8,510.4,393.4,511.7,393.1,513.5z"></path> </g> </g> <g> <g> <path class="st4" d="M744.7,461.1l-3.2-4.5c-0.3,0-0.6,0-0.9,0H737v4.5h-2.1v-14.7h5.7c3.8,0,6.1,1.9,6.1,5.1 c0,2.3-1.2,3.9-3.2,4.6l3.5,4.9H744.7z M744.6,451.5c0-2.1-1.4-3.3-4.1-3.3H737v6.6h3.6C743.2,454.8,744.6,453.6,744.6,451.5z"></path> <path class="st4" d="M759.3,456.2h-9c0.3,2,1.8,3.3,4,3.3c1.3,0,2.4-0.4,3.2-1.3l1.1,1.3c-1,1.2-2.5,1.8-4.4,1.8 c-3.6,0-6-2.4-6-5.7c0-3.3,2.4-5.7,5.6-5.7s5.5,2.3,5.5,5.7C759.4,455.8,759.3,456,759.3,456.2z M750.3,454.7h7.1 c-0.2-1.9-1.6-3.2-3.6-3.2C751.9,451.6,750.5,452.9,750.3,454.7z M754.2,448.3h-1.9l2.9-2.7h2.6L754.2,448.3z"></path> <path class="st4" d="M763.9,449v1h3.2v1.7h-3.2v9.5h-2v-9.5H760V450h1.9v-1c0-2.2,1.3-3.6,3.7-3.6c0.9,0,1.7,0.2,2.3,0.7l-0.6,1.5 c-0.4-0.3-1-0.5-1.6-0.5C764.5,447,763.9,447.7,763.9,449z"></path> <path class="st4" d="M776.2,449.9v2c-0.2,0-0.3,0-0.5,0c-2.2,0-3.5,1.3-3.5,3.8v5.5h-2V450h1.9v1.9 C772.9,450.5,774.2,449.9,776.2,449.9z"></path> <path class="st4" d="M777.8,446.5c0-0.7,0.6-1.3,1.4-1.3c0.8,0,1.4,0.6,1.4,1.3c0,0.8-0.6,1.3-1.4,1.3 C778.4,447.8,777.8,447.3,777.8,446.5z M778.1,450h2v11.1h-2V450z"></path> <path class="st4" d="M794.1,450v9.6c0,3.9-2,5.7-5.8,5.7c-2,0-4.1-0.6-5.3-1.7l1-1.6c1,0.9,2.6,1.4,4.3,1.4c2.6,0,3.8-1.2,3.8-3.7 v-0.9c-1,1.2-2.4,1.7-4,1.7c-3.2,0-5.6-2.2-5.6-5.4s2.4-5.4,5.6-5.4c1.7,0,3.2,0.6,4.1,1.8V450H794.1z M792.1,455.2 c0-2.2-1.6-3.6-3.8-3.6c-2.2,0-3.8,1.4-3.8,3.6c0,2.1,1.6,3.6,3.8,3.6C790.6,458.9,792.1,457.4,792.1,455.2z"></path> <path class="st4" d="M807.5,456.2h-9c0.3,2,1.8,3.3,4,3.3c1.3,0,2.4-0.4,3.2-1.3l1.1,1.3c-1,1.2-2.5,1.8-4.4,1.8 c-3.6,0-6-2.4-6-5.7c0-3.3,2.4-5.7,5.6-5.7s5.5,2.3,5.5,5.7C807.5,455.8,807.5,456,807.5,456.2z M798.4,454.7h7.1 c-0.2-1.9-1.6-3.2-3.6-3.2C800.1,451.6,798.6,452.9,798.4,454.7z M802.3,448.3h-1.9l2.9-2.7h2.6L802.3,448.3z"></path> <path class="st4" d="M815.8,449.9v2c-0.2,0-0.3,0-0.5,0c-2.2,0-3.5,1.3-3.5,3.8v5.5h-2V450h1.9v1.9 C812.4,450.5,813.8,449.9,815.8,449.9z"></path> <path class="st4" d="M826.5,454.4v6.7h-1.9v-1.5c-0.7,1-1.9,1.6-3.7,1.6c-2.5,0-4.1-1.3-4.1-3.3c0-1.8,1.2-3.3,4.5-3.3h3.2v-0.4 c0-1.7-1-2.7-3-2.7c-1.3,0-2.7,0.5-3.5,1.2l-0.8-1.5c1.2-0.9,2.8-1.4,4.6-1.4C824.8,449.9,826.5,451.3,826.5,454.4z M824.5,457.7 v-1.6h-3.1c-2,0-2.6,0.8-2.6,1.7c0,1.1,0.9,1.8,2.5,1.8C822.8,459.7,824,459,824.5,457.7z"></path> <path class="st4" d="M836,460.4c-0.6,0.5-1.5,0.8-2.4,0.8c-2.2,0-3.5-1.2-3.5-3.5v-6.1h-1.9V450h1.9v-2.4h2v2.4h3.2v1.7H832v6 c0,1.2,0.6,1.9,1.7,1.9c0.6,0,1.2-0.2,1.6-0.5L836,460.4z"></path> <path class="st4" d="M847.5,456.2h-9c0.3,2,1.8,3.3,4,3.3c1.3,0,2.4-0.4,3.2-1.3l1.1,1.3c-1,1.2-2.5,1.8-4.4,1.8 c-3.6,0-6-2.4-6-5.7c0-3.3,2.4-5.7,5.6-5.7s5.5,2.3,5.5,5.7C847.6,455.8,847.5,456,847.5,456.2z M838.5,454.7h7.1 c-0.2-1.9-1.6-3.2-3.6-3.2C840.1,451.6,838.7,452.9,838.5,454.7z"></path> <path class="st4" d="M860.2,450v11.1h-1.9v-1.7c-0.8,1.2-2.2,1.8-3.8,1.8c-2.9,0-4.8-1.6-4.8-4.9V450h2v6.2c0,2.2,1.1,3.3,3,3.3 c2.1,0,3.4-1.3,3.4-3.7V450H860.2z"></path> <path class="st4" d="M869.5,449.9v2c-0.2,0-0.3,0-0.5,0c-2.2,0-3.5,1.3-3.5,3.8v5.5h-2V450h1.9v1.9 C866.2,450.5,867.6,449.9,869.5,449.9z"></path> </g> </g> <g> <g> <path class="st4" d="M801,385.9v5.1h7.4v1.8H801v5.9h-2.1v-14.7h10.4v1.8H801z"></path> <path class="st4" d="M810,393.2c0-3.3,2.5-5.7,5.8-5.7s5.8,2.4,5.8,5.7s-2.4,5.7-5.8,5.7S810,396.5,810,393.2z M819.5,393.2 c0-2.4-1.6-3.9-3.7-3.9s-3.8,1.5-3.8,3.9s1.6,3.9,3.8,3.9S819.5,395.6,819.5,393.2z"></path> <path class="st4" d="M834.2,387.7v11.1h-1.9v-1.7c-0.8,1.2-2.2,1.8-3.8,1.8c-2.9,0-4.8-1.6-4.8-4.9v-6.4h2v6.2 c0,2.2,1.1,3.3,3,3.3c2.1,0,3.4-1.3,3.4-3.7v-5.8H834.2z"></path> <path class="st4" d="M843.5,387.6v2c-0.2,0-0.3,0-0.5,0c-2.2,0-3.5,1.3-3.5,3.8v5.5h-2v-11.1h1.9v1.9 C840.2,388.2,841.6,387.6,843.5,387.6z"></path> </g> </g> <g> <g> <path class="st4" d="M843.5,321.8v14.7h-2.1v-6.6H833v6.6h-2.1v-14.7h2.1v6.3h8.4v-6.3H843.5z"></path> <path class="st4" d="M846.1,330.9c0-3.3,2.5-5.7,5.8-5.7s5.8,2.4,5.8,5.7s-2.4,5.7-5.8,5.7S846.1,334.3,846.1,330.9z M855.6,330.9 c0-2.4-1.6-3.9-3.7-3.9s-3.8,1.5-3.8,3.9s1.6,3.9,3.8,3.9S855.6,333.3,855.6,330.9z"></path> <path class="st4" d="M866.2,335.8c-0.6,0.5-1.5,0.8-2.4,0.8c-2.2,0-3.5-1.2-3.5-3.5V327h-1.9v-1.7h1.9v-2.4h2v2.4h3.2v1.7h-3.2v6 c0,1.2,0.6,1.9,1.7,1.9c0.6,0,1.2-0.2,1.6-0.5L866.2,335.8z"></path> <path class="st4" d="M874,335.8c-0.6,0.5-1.5,0.8-2.4,0.8c-2.2,0-3.5-1.2-3.5-3.5V327h-1.9v-1.7h1.9v-2.4h2v2.4h3.2v1.7h-3.2v6 c0,1.2,0.6,1.9,1.7,1.9c0.6,0,1.2-0.2,1.6-0.5L874,335.8z"></path> <path class="st4" d="M885.6,331.6h-9c0.3,2,1.8,3.3,4,3.3c1.3,0,2.4-0.4,3.2-1.3l1.1,1.3c-1,1.2-2.5,1.8-4.4,1.8 c-3.6,0-6-2.4-6-5.7c0-3.3,2.4-5.7,5.6-5.7s5.5,2.3,5.5,5.7C885.6,331.2,885.6,331.4,885.6,331.6z M876.6,330.2h7.1 c-0.2-1.9-1.6-3.2-3.6-3.2C878.2,327,876.8,328.3,876.6,330.2z"></path> <path class="st4" d="M901.9,329.8v6.7h-1.9V335c-0.7,1-1.9,1.6-3.7,1.6c-2.5,0-4.1-1.3-4.1-3.3c0-1.8,1.2-3.3,4.5-3.3h3.2v-0.4 c0-1.7-1-2.7-3-2.7c-1.3,0-2.7,0.5-3.5,1.2l-0.8-1.5c1.2-0.9,2.8-1.4,4.6-1.4C900.1,325.3,901.9,326.7,901.9,329.8z M899.8,333.1 v-1.6h-3.1c-2,0-2.6,0.8-2.6,1.7c0,1.1,0.9,1.8,2.5,1.8C898.1,335.1,899.3,334.4,899.8,333.1z"></path> <path class="st4" d="M903.7,335.3l0.8-1.6c0.9,0.7,2.5,1.2,3.9,1.2c1.9,0,2.6-0.6,2.6-1.5c0-2.5-7-0.3-7-4.8c0-2,1.8-3.3,4.6-3.3 c1.4,0,3.1,0.4,4.1,1l-0.9,1.6c-1-0.7-2.1-0.9-3.2-0.9c-1.8,0-2.6,0.7-2.6,1.5c0,2.6,7.1,0.5,7.1,4.8c0,2-1.8,3.3-4.8,3.3 C906.4,336.6,904.6,336.1,903.7,335.3z"></path> <path class="st4" d="M926.6,330.9c0,3.4-2.4,5.7-5.6,5.7c-1.6,0-3-0.6-3.9-1.8v5.8h-2v-15.2h1.9v1.8c0.9-1.2,2.3-1.9,4-1.9 C924.2,325.3,926.6,327.5,926.6,330.9z M924.6,330.9c0-2.4-1.6-3.9-3.8-3.9c-2.1,0-3.7,1.6-3.7,3.9c0,2.4,1.6,3.9,3.7,3.9 C922.9,334.9,924.6,333.3,924.6,330.9z"></path> <path class="st4" d="M928.5,321.9c0-0.7,0.6-1.3,1.4-1.3c0.8,0,1.4,0.6,1.4,1.3c0,0.8-0.6,1.3-1.4,1.3 C929.1,323.2,928.5,322.7,928.5,321.9z M928.9,325.4h2v11.1h-2V325.4z"></path> <path class="st4" d="M940.2,325.3v2c-0.2,0-0.3,0-0.5,0c-2.2,0-3.5,1.3-3.5,3.8v5.5h-2v-11.1h1.9v1.9 C936.8,325.9,938.2,325.3,940.2,325.3z"></path> <path class="st4" d="M950.9,329.8v6.7H949V335c-0.7,1-1.9,1.6-3.7,1.6c-2.5,0-4.1-1.3-4.1-3.3c0-1.8,1.2-3.3,4.5-3.3h3.2v-0.4 c0-1.7-1-2.7-3-2.7c-1.3,0-2.7,0.5-3.5,1.2l-0.8-1.5c1.2-0.9,2.8-1.4,4.6-1.4C949.2,325.3,950.9,326.7,950.9,329.8z M948.9,333.1 v-1.6h-3.1c-2,0-2.6,0.8-2.6,1.7c0,1.1,0.9,1.8,2.5,1.8C947.2,335.1,948.4,334.4,948.9,333.1z"></path> <path class="st4" d="M964.7,330.1v6.4h-2v-6.2c0-2.2-1.1-3.3-3-3.3c-2.1,0-3.5,1.3-3.5,3.7v5.7h-2v-11.1h1.9v1.7 c0.8-1.1,2.2-1.8,4-1.8C962.8,325.3,964.7,326.8,964.7,330.1z"></path> <path class="st4" d="M974.2,335.8c-0.6,0.5-1.5,0.8-2.4,0.8c-2.2,0-3.5-1.2-3.5-3.5V327h-1.9v-1.7h1.9v-2.4h2v2.4h3.2v1.7h-3.2v6 c0,1.2,0.6,1.9,1.7,1.9c0.6,0,1.2-0.2,1.6-0.5L974.2,335.8z"></path> <path class="st4" d="M985.7,331.6h-9c0.3,2,1.8,3.3,4,3.3c1.3,0,2.4-0.4,3.2-1.3l1.1,1.3c-1,1.2-2.5,1.8-4.4,1.8 c-3.6,0-6-2.4-6-5.7c0-3.3,2.4-5.7,5.6-5.7s5.5,2.3,5.5,5.7C985.8,331.2,985.7,331.4,985.7,331.6z M976.7,330.2h7.1 c-0.2-1.9-1.6-3.2-3.6-3.2C978.3,327,976.9,328.3,976.7,330.2z"></path> </g> </g> <g> <g> <path class="st4" d="M851.9,270.5h-7.8l-1.6,3.7h-2.2l6.7-14.7h2.1l6.7,14.7h-2.2L851.9,270.5z M851.1,268.8l-3.2-7.2l-3.2,7.2 H851.1z"></path> <path class="st4" d="M863,263v2c-0.2,0-0.3,0-0.5,0c-2.2,0-3.5,1.3-3.5,3.8v5.5h-2v-11.1h1.9v1.9C859.7,263.6,861.1,263,863,263z"></path> <path class="st4" d="M871,263v2c-0.2,0-0.3,0-0.5,0c-2.2,0-3.5,1.3-3.5,3.8v5.5h-2v-11.1h1.9v1.9C867.6,263.6,869,263,871,263z"></path> <path class="st4" d="M871.8,268.6c0-3.3,2.5-5.7,5.8-5.7s5.8,2.4,5.8,5.7s-2.4,5.7-5.8,5.7S871.8,272,871.8,268.6z M881.3,268.6 c0-2.4-1.6-3.9-3.7-3.9s-3.8,1.5-3.8,3.9s1.6,3.9,3.8,3.9S881.3,271,881.3,268.6z"></path> <path class="st4" d="M884.2,273l0.8-1.6c0.9,0.7,2.5,1.2,3.9,1.2c1.9,0,2.6-0.6,2.6-1.5c0-2.5-7-0.3-7-4.8c0-2,1.8-3.3,4.6-3.3 c1.4,0,3.1,0.4,4.1,1l-0.9,1.6c-1-0.7-2.1-0.9-3.2-0.9c-1.8,0-2.6,0.7-2.6,1.5c0,2.6,7.1,0.5,7.1,4.8c0,2-1.8,3.3-4.8,3.3 C887,274.3,885.2,273.8,884.2,273z"></path> <path class="st4" d="M904.5,267.5v6.7h-1.9v-1.5c-0.7,1-1.9,1.6-3.7,1.6c-2.5,0-4.1-1.3-4.1-3.3c0-1.8,1.2-3.3,4.5-3.3h3.2v-0.4 c0-1.7-1-2.7-3-2.7c-1.3,0-2.7,0.5-3.5,1.2l-0.8-1.5c1.2-0.9,2.8-1.4,4.6-1.4C902.7,263,904.5,264.4,904.5,267.5z M902.4,270.8 v-1.6h-3.1c-2,0-2.6,0.8-2.6,1.7c0,1.1,0.9,1.8,2.5,1.8C900.7,272.8,901.9,272.1,902.4,270.8z"></path> <path class="st4" d="M918.4,263.1v9.6c0,3.9-2,5.7-5.8,5.7c-2,0-4.1-0.6-5.3-1.7l1-1.6c1,0.9,2.6,1.4,4.3,1.4 c2.6,0,3.8-1.2,3.8-3.7V272c-1,1.2-2.4,1.7-4,1.7c-3.2,0-5.6-2.2-5.6-5.4s2.4-5.4,5.6-5.4c1.7,0,3.2,0.6,4.1,1.8v-1.7H918.4z M916.4,268.3c0-2.2-1.6-3.6-3.8-3.6c-2.2,0-3.8,1.4-3.8,3.6c0,2.1,1.6,3.6,3.8,3.6C914.8,272,916.4,270.5,916.4,268.3z"></path> <path class="st4" d="M931.7,269.3h-9c0.3,2,1.8,3.3,4,3.3c1.3,0,2.4-0.4,3.2-1.3l1.1,1.3c-1,1.2-2.5,1.8-4.4,1.8 c-3.6,0-6-2.4-6-5.7c0-3.3,2.4-5.7,5.6-5.7s5.5,2.3,5.5,5.7C931.8,268.9,931.7,269.1,931.7,269.3z M922.7,267.9h7.1 c-0.2-1.9-1.6-3.2-3.6-3.2C924.3,264.7,922.9,266,922.7,267.9z"></path> </g> </g> <g> <g> <path class="st4" d="M841.5,210.1v1.8h-10.7v-14.7h10.4v1.8H833v4.5h7.4v1.8H833v4.7H841.5z"></path> <path class="st4" d="M852.8,205.2v6.7h-1.9v-1.5c-0.7,1-1.9,1.6-3.7,1.6c-2.5,0-4.1-1.3-4.1-3.3c0-1.8,1.2-3.3,4.5-3.3h3.2v-0.4 c0-1.7-1-2.7-3-2.7c-1.3,0-2.7,0.5-3.5,1.2l-0.8-1.5c1.2-0.9,2.8-1.4,4.6-1.4C851.1,200.7,852.8,202.1,852.8,205.2z M850.8,208.5 V207h-3.1c-2,0-2.6,0.8-2.6,1.7c0,1.1,0.9,1.8,2.5,1.8C849.1,210.5,850.3,209.8,850.8,208.5z"></path> <path class="st4" d="M866.4,200.8v11.1h-1.9v-1.7c-0.8,1.2-2.2,1.8-3.8,1.8c-2.9,0-4.8-1.6-4.8-4.9v-6.4h2v6.2 c0,2.2,1.1,3.3,3,3.3c2.1,0,3.4-1.3,3.4-3.7v-5.8H866.4z"></path> <path class="st4" d="M873.8,206.3c0-3.3,2.5-5.7,5.9-5.7c2,0,3.7,0.8,4.5,2.4l-1.5,1c-0.7-1.1-1.8-1.6-3-1.6 c-2.2,0-3.8,1.5-3.8,3.9c0,2.4,1.6,3.9,3.8,3.9c1.2,0,2.3-0.5,3-1.6l1.5,1c-0.9,1.6-2.5,2.4-4.5,2.4 C876.2,212,873.8,209.7,873.8,206.3z"></path> <path class="st4" d="M896.7,205.5v6.4h-2v-6.2c0-2.2-1.1-3.3-3-3.3c-2.1,0-3.5,1.3-3.5,3.7v5.7h-2v-15.6h2v6 c0.8-1.1,2.2-1.7,3.9-1.7C894.8,200.7,896.7,202.2,896.7,205.5z"></path> <path class="st4" d="M908.7,205.2v6.7h-1.9v-1.5c-0.7,1-1.9,1.6-3.7,1.6c-2.5,0-4.1-1.3-4.1-3.3c0-1.8,1.2-3.3,4.5-3.3h3.2v-0.4 c0-1.7-1-2.7-3-2.7c-1.3,0-2.7,0.5-3.5,1.2l-0.8-1.5c1.2-0.9,2.8-1.4,4.6-1.4C907,200.7,908.7,202.1,908.7,205.2z M906.7,208.5 V207h-3.1c-2,0-2.6,0.8-2.6,1.7c0,1.1,0.9,1.8,2.5,1.8C905,210.5,906.2,209.8,906.7,208.5z"></path> <path class="st4" d="M922.3,200.8v11.1h-1.9v-1.7c-0.8,1.2-2.2,1.8-3.8,1.8c-2.9,0-4.8-1.6-4.8-4.9v-6.4h2v6.2 c0,2.2,1.1,3.3,3,3.3c2.1,0,3.4-1.3,3.4-3.7v-5.8H922.3z"></path> <path class="st4" d="M936.1,196.3v15.6h-1.9v-1.8c-0.9,1.3-2.3,1.9-4,1.9c-3.3,0-5.6-2.3-5.6-5.7s2.4-5.7,5.6-5.7 c1.6,0,3,0.6,3.9,1.8v-6.1H936.1z M934.1,206.3c0-2.4-1.6-3.9-3.7-3.9c-2.1,0-3.8,1.5-3.8,3.9s1.6,3.9,3.8,3.9 C932.5,210.3,934.1,208.7,934.1,206.3z"></path> <path class="st4" d="M949.4,207h-9c0.3,2,1.8,3.3,4,3.3c1.3,0,2.4-0.4,3.2-1.3l1.1,1.3c-1,1.2-2.5,1.8-4.4,1.8c-3.6,0-6-2.4-6-5.7 c0-3.3,2.4-5.7,5.6-5.7s5.5,2.3,5.5,5.7C949.5,206.6,949.5,206.8,949.4,207z M940.4,205.6h7.1c-0.2-1.9-1.6-3.2-3.6-3.2 C942,202.4,940.6,203.7,940.4,205.6z"></path> </g> </g> <g> <g> <path class="st4" d="M795.9,142.3c0-4.3,3.3-7.5,7.8-7.5c2.3,0,4.2,0.8,5.6,2.3l-1.4,1.3c-1.1-1.2-2.5-1.7-4.1-1.7 c-3.3,0-5.8,2.4-5.8,5.6s2.5,5.6,5.8,5.6c1.6,0,3-0.6,4.1-1.8l1.4,1.3c-1.3,1.5-3.3,2.3-5.6,2.3 C799.3,149.8,795.9,146.6,795.9,142.3z"></path> <path class="st4" d="M811.5,134h2v15.6h-2V134z"></path> <path class="st4" d="M816.5,135c0-0.7,0.6-1.3,1.4-1.3c0.8,0,1.4,0.6,1.4,1.3c0,0.8-0.6,1.3-1.4,1.3 C817.1,136.3,816.5,135.8,816.5,135z M816.8,138.5h2v11.1h-2V138.5z"></path> <path class="st4" d="M840.6,143.2v6.4h-2v-6.2c0-2.2-1.1-3.3-2.9-3.3c-2,0-3.3,1.3-3.3,3.7v5.7h-2v-6.2c0-2.2-1.1-3.3-2.9-3.3 c-2,0-3.3,1.3-3.3,3.7v5.7h-2v-11.1h1.9v1.7c0.8-1.1,2.2-1.8,3.8-1.8c1.7,0,3.1,0.7,3.9,2.1c0.8-1.3,2.4-2.1,4.3-2.1 C838.8,138.4,840.6,139.9,840.6,143.2z"></path> <path class="st4" d="M852.7,142.9v6.7h-1.9v-1.5c-0.7,1-1.9,1.6-3.7,1.6c-2.5,0-4.1-1.3-4.1-3.3c0-1.8,1.2-3.3,4.5-3.3h3.2v-0.4 c0-1.7-1-2.7-3-2.7c-1.3,0-2.7,0.5-3.5,1.2l-0.8-1.5c1.2-0.9,2.8-1.4,4.6-1.4C850.9,138.4,852.7,139.8,852.7,142.9z M850.6,146.2 v-1.6h-3.1c-2,0-2.6,0.8-2.6,1.7c0,1.1,0.9,1.8,2.5,1.8C848.9,148.2,850.1,147.5,850.6,146.2z"></path> <path class="st4" d="M862.1,149c-0.6,0.5-1.5,0.8-2.4,0.8c-2.2,0-3.5-1.2-3.5-3.5v-6.1h-1.9v-1.7h1.9V136h2v2.4h3.2v1.7h-3.2v6 c0,1.2,0.6,1.9,1.7,1.9c0.6,0,1.2-0.2,1.6-0.5L862.1,149z"></path> <path class="st4" d="M863.7,135c0-0.7,0.6-1.3,1.4-1.3c0.8,0,1.4,0.6,1.4,1.3c0,0.8-0.6,1.3-1.4,1.3 C864.3,136.3,863.7,135.8,863.7,135z M864,138.5h2v11.1h-2V138.5z"></path> <path class="st4" d="M868,148.4l0.8-1.6c0.9,0.7,2.5,1.2,3.9,1.2c1.9,0,2.6-0.6,2.6-1.5c0-2.5-7-0.3-7-4.8c0-2,1.8-3.3,4.6-3.3 c1.4,0,3.1,0.4,4.1,1l-0.9,1.6c-1-0.7-2.1-0.9-3.2-0.9c-1.8,0-2.6,0.7-2.6,1.5c0,2.6,7.1,0.5,7.1,4.8c0,2-1.8,3.3-4.8,3.3 C870.7,149.7,868.9,149.2,868,148.4z"></path> <path class="st4" d="M888.2,142.9v6.7h-1.9v-1.5c-0.7,1-1.9,1.6-3.7,1.6c-2.5,0-4.1-1.3-4.1-3.3c0-1.8,1.2-3.3,4.5-3.3h3.2v-0.4 c0-1.7-1-2.7-3-2.7c-1.3,0-2.7,0.5-3.5,1.2l-0.8-1.5c1.2-0.9,2.8-1.4,4.6-1.4C886.5,138.4,888.2,139.8,888.2,142.9z M886.2,146.2 v-1.6h-3.1c-2,0-2.6,0.8-2.6,1.7c0,1.1,0.9,1.8,2.5,1.8C884.5,148.2,885.7,147.5,886.2,146.2z"></path> <path class="st4" d="M897.7,149c-0.6,0.5-1.5,0.8-2.4,0.8c-2.2,0-3.5-1.2-3.5-3.5v-6.1h-1.9v-1.7h1.9V136h2v2.4h3.2v1.7h-3.2v6 c0,1.2,0.6,1.9,1.7,1.9c0.6,0,1.2-0.2,1.6-0.5L897.7,149z"></path> <path class="st4" d="M899.2,135c0-0.7,0.6-1.3,1.4-1.3c0.8,0,1.4,0.6,1.4,1.3c0,0.8-0.6,1.3-1.4,1.3 C899.8,136.3,899.2,135.8,899.2,135z M899.6,138.5h2v11.1h-2V138.5z"></path> <path class="st4" d="M903.9,144c0-3.3,2.5-5.7,5.8-5.7s5.8,2.4,5.8,5.7s-2.4,5.7-5.8,5.7S903.9,147.4,903.9,144z M913.4,144 c0-2.4-1.6-3.9-3.7-3.9s-3.8,1.5-3.8,3.9s1.6,3.9,3.8,3.9S913.4,146.4,913.4,144z"></path> <path class="st4" d="M928.3,143.2v6.4h-2v-6.2c0-2.2-1.1-3.3-3-3.3c-2.1,0-3.5,1.3-3.5,3.7v5.7h-2v-11.1h1.9v1.7 c0.8-1.1,2.2-1.8,4-1.8C926.4,138.4,928.3,139.9,928.3,143.2z"></path> </g> </g> <g> <g> <path class="st4" d="M726.9,76.5c0-4.3,3.3-7.5,7.8-7.5c2.3,0,4.2,0.8,5.6,2.3l-1.4,1.3c-1.1-1.2-2.5-1.7-4.1-1.7 c-3.3,0-5.8,2.4-5.8,5.6s2.5,5.6,5.8,5.6c1.6,0,3-0.6,4.1-1.8l1.4,1.3c-1.3,1.5-3.3,2.3-5.6,2.3C730.2,84,726.9,80.8,726.9,76.5z"></path> <path class="st4" d="M753,77.4v6.4h-2v-6.2c0-2.2-1.1-3.3-3-3.3c-2.1,0-3.5,1.3-3.5,3.7v5.7h-2V68.2h2v6c0.8-1.1,2.2-1.7,3.9-1.7 C751.1,72.6,753,74.1,753,77.4z"></path> <path class="st4" d="M765,77.1v6.7h-1.9v-1.5c-0.7,1-1.9,1.6-3.7,1.6c-2.5,0-4.1-1.3-4.1-3.3c0-1.8,1.2-3.3,4.5-3.3h3.2V77 c0-1.7-1-2.7-3-2.7c-1.3,0-2.7,0.5-3.5,1.2l-0.8-1.5c1.2-0.9,2.8-1.4,4.6-1.4C763.3,72.6,765,74.1,765,77.1z M763,80.4v-1.6h-3.1 c-2,0-2.6,0.8-2.6,1.7c0,1.1,0.9,1.8,2.5,1.8C761.3,82.4,762.5,81.7,763,80.4z"></path> <path class="st4" d="M778.6,72.7v11.1h-1.9v-1.7c-0.8,1.2-2.2,1.8-3.8,1.8c-2.9,0-4.8-1.6-4.8-4.9v-6.4h2v6.2c0,2.2,1.1,3.3,3,3.3 c2.1,0,3.4-1.3,3.4-3.7v-5.8H778.6z"></path> <path class="st4" d="M784.2,71.7v1h3.2v1.7h-3.2v9.5h-2v-9.5h-1.9v-1.7h1.9v-1c0-2.2,1.3-3.6,3.7-3.6c0.9,0,1.7,0.2,2.3,0.7 l-0.6,1.5c-0.4-0.3-1-0.5-1.6-0.5C784.8,69.8,784.2,70.4,784.2,71.7z"></path> <path class="st4" d="M791.1,71.7v1h3.2v1.7h-3.2v9.5h-2v-9.5h-1.9v-1.7h1.9v-1c0-2.2,1.3-3.6,3.7-3.6c0.9,0,1.7,0.2,2.3,0.7 l-0.6,1.5c-0.4-0.3-1-0.5-1.6-0.5C791.7,69.8,791.1,70.4,791.1,71.7z"></path> <path class="st4" d="M804.3,77.1v6.7h-1.9v-1.5c-0.7,1-1.9,1.6-3.7,1.6c-2.5,0-4.1-1.3-4.1-3.3c0-1.8,1.2-3.3,4.5-3.3h3.2V77 c0-1.7-1-2.7-3-2.7c-1.3,0-2.7,0.5-3.5,1.2L795,74c1.2-0.9,2.8-1.4,4.6-1.4C802.6,72.6,804.3,74.1,804.3,77.1z M802.3,80.4v-1.6 h-3.1c-2,0-2.6,0.8-2.6,1.7c0,1.1,0.9,1.8,2.5,1.8C800.6,82.4,801.8,81.7,802.3,80.4z"></path> <path class="st4" d="M818.3,72.7v9.6c0,3.9-2,5.7-5.8,5.7c-2,0-4.1-0.6-5.3-1.7l1-1.6c1,0.9,2.6,1.4,4.3,1.4 c2.6,0,3.8-1.2,3.8-3.7v-0.9c-1,1.2-2.4,1.7-4,1.7c-3.2,0-5.6-2.2-5.6-5.4s2.4-5.4,5.6-5.4c1.7,0,3.2,0.6,4.1,1.8v-1.7H818.3z M816.3,78c0-2.2-1.6-3.6-3.8-3.6c-2.2,0-3.8,1.4-3.8,3.6c0,2.1,1.6,3.6,3.8,3.6C814.7,81.6,816.3,80.1,816.3,78z"></path> <path class="st4" d="M831.6,78.9h-9c0.3,2,1.8,3.3,4,3.3c1.3,0,2.4-0.4,3.2-1.3l1.1,1.3c-1,1.2-2.5,1.8-4.4,1.8 c-3.6,0-6-2.4-6-5.7c0-3.3,2.4-5.7,5.6-5.7s5.5,2.3,5.5,5.7C831.6,78.5,831.6,78.7,831.6,78.9z M822.6,77.5h7.1 c-0.2-1.9-1.6-3.2-3.6-3.2C824.2,74.3,822.8,75.6,822.6,77.5z"></path> </g> </g> <g> <g> <path class="st4" d="M609.6,23.3l0.8-1.6c1.1,1,3,1.7,4.9,1.7c2.5,0,3.6-1,3.6-2.3c0-3.6-8.9-1.3-8.9-6.8c0-2.3,1.8-4.2,5.6-4.2 c1.7,0,3.5,0.5,4.7,1.3l-0.7,1.7c-1.3-0.8-2.7-1.2-4-1.2c-2.5,0-3.6,1-3.6,2.3c0,3.6,8.9,1.3,8.9,6.7c0,2.2-1.8,4.2-5.7,4.2 C613,25.2,610.8,24.4,609.6,23.3z"></path> <path class="st4" d="M622.2,19.5c0-3.3,2.5-5.7,5.8-5.7s5.8,2.4,5.8,5.7s-2.4,5.7-5.8,5.7S622.2,22.8,622.2,19.5z M631.7,19.5 c0-2.4-1.6-3.9-3.7-3.9s-3.8,1.5-3.8,3.9s1.6,3.9,3.8,3.9S631.7,21.8,631.7,19.5z"></path> <path class="st4" d="M646.6,18.6V25h-2v-6.2c0-2.2-1.1-3.3-3-3.3c-2.1,0-3.5,1.3-3.5,3.7V25h-2V13.9h1.9v1.7 c0.8-1.1,2.2-1.8,4-1.8C644.7,13.8,646.6,15.3,646.6,18.6z"></path> <path class="st4" d="M660.3,18.6V25h-2v-6.2c0-2.2-1.1-3.3-3-3.3c-2.1,0-3.5,1.3-3.5,3.7V25h-2V13.9h1.9v1.7 c0.8-1.1,2.2-1.8,4-1.8C658.4,13.8,660.3,15.3,660.3,18.6z"></path> <path class="st4" d="M673.6,20.1h-9c0.3,2,1.8,3.3,4,3.3c1.3,0,2.4-0.4,3.2-1.3l1.1,1.3c-1,1.2-2.5,1.8-4.4,1.8 c-3.6,0-6-2.4-6-5.7c0-3.3,2.4-5.7,5.6-5.7s5.5,2.3,5.5,5.7C673.7,19.7,673.7,19.9,673.6,20.1z M664.6,18.7h7.1 c-0.2-1.9-1.6-3.2-3.6-3.2C666.3,15.5,664.8,16.8,664.6,18.7z"></path> <path class="st4" d="M682.2,24.4c-0.6,0.5-1.5,0.8-2.4,0.8c-2.2,0-3.5-1.2-3.5-3.5v-6.1h-1.9v-1.7h1.9v-2.4h2v2.4h3.2v1.7h-3.2v6 c0,1.2,0.6,1.9,1.7,1.9c0.6,0,1.2-0.2,1.6-0.5L682.2,24.4z"></path> <path class="st4" d="M690.1,24.4c-0.6,0.5-1.5,0.8-2.4,0.8c-2.2,0-3.5-1.2-3.5-3.5v-6.1h-1.9v-1.7h1.9v-2.4h2v2.4h3.2v1.7h-3.2v6 c0,1.2,0.6,1.9,1.7,1.9c0.6,0,1.2-0.2,1.6-0.5L690.1,24.4z"></path> <path class="st4" d="M701.7,20.1h-9c0.3,2,1.8,3.3,4,3.3c1.3,0,2.4-0.4,3.2-1.3l1.1,1.3c-1,1.2-2.5,1.8-4.4,1.8 c-3.6,0-6-2.4-6-5.7c0-3.3,2.4-5.7,5.6-5.7s5.5,2.3,5.5,5.7C701.7,19.7,701.7,19.9,701.7,20.1z M692.6,18.7h7.1 c-0.2-1.9-1.6-3.2-3.6-3.2C694.3,15.5,692.8,16.8,692.6,18.7z"></path> </g> </g> <g> <g> <path class="st4" d="M161.4,459.4l0.8-1.6c1.1,1,3,1.7,4.9,1.7c2.5,0,3.6-1,3.6-2.3c0-3.6-8.9-1.3-8.9-6.8c0-2.3,1.8-4.2,5.6-4.2 c1.7,0,3.5,0.5,4.7,1.3l-0.7,1.7c-1.3-0.8-2.7-1.2-4-1.2c-2.5,0-3.6,1-3.6,2.3c0,3.6,8.9,1.3,8.9,6.7c0,2.2-1.8,4.2-5.7,4.2 C164.8,461.3,162.5,460.5,161.4,459.4z"></path> <path class="st4" d="M185,456.2h-9c0.3,2,1.8,3.3,4,3.3c1.3,0,2.4-0.4,3.2-1.3l1.1,1.3c-1,1.2-2.5,1.8-4.4,1.8c-3.6,0-6-2.4-6-5.7 c0-3.3,2.4-5.7,5.6-5.7s5.5,2.3,5.5,5.7C185,455.8,185,456,185,456.2z M179.2,448.3l-3.5-2.7h2.6l2.9,2.7H179.2z M175.9,454.7h7.1 c-0.2-1.9-1.6-3.2-3.6-3.2C177.6,451.6,176.1,452.9,175.9,454.7z"></path> <path class="st4" d="M186.2,455.5c0-3.3,2.5-5.7,5.9-5.7c2,0,3.7,0.8,4.5,2.4l-1.5,1c-0.7-1.1-1.8-1.6-3-1.6 c-2.2,0-3.8,1.5-3.8,3.9c0,2.4,1.6,3.9,3.8,3.9c1.2,0,2.3-0.5,3-1.6l1.5,1c-0.9,1.6-2.5,2.4-4.5,2.4 C188.7,461.2,186.2,458.8,186.2,455.5z"></path> <path class="st4" d="M209.1,454.7v6.4h-2v-6.2c0-2.2-1.1-3.3-3-3.3c-2.1,0-3.5,1.3-3.5,3.7v5.7h-2v-15.6h2v6 c0.8-1.1,2.2-1.7,3.9-1.7C207.2,449.9,209.1,451.4,209.1,454.7z"></path> <path class="st4" d="M222.4,456.2h-9c0.3,2,1.8,3.3,4,3.3c1.3,0,2.4-0.4,3.2-1.3l1.1,1.3c-1,1.2-2.5,1.8-4.4,1.8 c-3.6,0-6-2.4-6-5.7c0-3.3,2.4-5.7,5.6-5.7s5.5,2.3,5.5,5.7C222.5,455.8,222.5,456,222.4,456.2z M213.4,454.7h7.1 c-0.2-1.9-1.6-3.2-3.6-3.2C215,451.6,213.6,452.9,213.4,454.7z"></path> <path class="st4" d="M224.2,454.5h5.6v1.7h-5.6V454.5z"></path> <path class="st4" d="M232.5,445.5h2v15.6h-2V445.5z"></path> <path class="st4" d="M237.5,446.5c0-0.7,0.6-1.3,1.4-1.3s1.4,0.6,1.4,1.3c0,0.8-0.6,1.3-1.4,1.3 C238,447.8,237.5,447.3,237.5,446.5z M237.8,450h2v11.1h-2V450z"></path> <path class="st4" d="M253.7,454.7v6.4h-2v-6.2c0-2.2-1.1-3.3-3-3.3c-2.1,0-3.5,1.3-3.5,3.7v5.7h-2V450h1.9v1.7 c0.8-1.1,2.2-1.8,4-1.8C251.8,449.9,253.7,451.4,253.7,454.7z"></path> <path class="st4" d="M267.6,450v9.6c0,3.9-2,5.7-5.8,5.7c-2,0-4.1-0.6-5.3-1.7l1-1.6c1,0.9,2.6,1.4,4.3,1.4c2.6,0,3.8-1.2,3.8-3.7 v-0.9c-1,1.2-2.4,1.7-4,1.7c-3.2,0-5.6-2.2-5.6-5.4s2.4-5.4,5.6-5.4c1.7,0,3.2,0.6,4.1,1.8V450H267.6z M265.7,455.2 c0-2.2-1.6-3.6-3.8-3.6c-2.2,0-3.8,1.4-3.8,3.6c0,2.1,1.6,3.6,3.8,3.6C264.1,458.9,265.7,457.4,265.7,455.2z"></path> <path class="st4" d="M281,456.2h-9c0.3,2,1.8,3.3,4,3.3c1.3,0,2.4-0.4,3.2-1.3l1.1,1.3c-1,1.2-2.5,1.8-4.4,1.8c-3.6,0-6-2.4-6-5.7 c0-3.3,2.4-5.7,5.6-5.7s5.5,2.3,5.5,5.7C281,455.8,281,456,281,456.2z M271.9,454.7h7.1c-0.2-1.9-1.6-3.2-3.6-3.2 C273.6,451.6,272.1,452.9,271.9,454.7z"></path> </g> </g> <g> <g> <path class="st4" d="M15.1,147.9l0.8-1.6c1.1,1,3,1.7,4.9,1.7c2.5,0,3.6-1,3.6-2.3c0-3.6-8.9-1.3-8.9-6.8c0-2.3,1.8-4.2,5.6-4.2 c1.7,0,3.5,0.5,4.7,1.3l-0.7,1.7c-1.3-0.8-2.7-1.2-4-1.2c-2.5,0-3.6,1-3.6,2.3c0,3.6,8.9,1.3,8.9,6.7c0,2.2-1.8,4.2-5.7,4.2 C18.5,149.8,16.3,149,15.1,147.9z"></path> <path class="st4" d="M38.3,138.5l-5.4,12.2c-1,2.4-2.3,3.1-4,3.1c-1.1,0-2.2-0.4-2.9-1l0.9-1.5c0.5,0.5,1.2,0.8,2,0.8 c1,0,1.6-0.4,2.1-1.7l0.4-0.8l-4.9-11.1h2.1l3.9,8.9l3.8-8.9H38.3z"></path> <path class="st4" d="M38.1,148.4l0.8-1.6c0.9,0.7,2.5,1.2,3.9,1.2c1.9,0,2.6-0.6,2.6-1.5c0-2.5-7-0.3-7-4.8c0-2,1.8-3.3,4.6-3.3 c1.4,0,3.1,0.4,4.1,1l-0.9,1.6c-1-0.7-2.1-0.9-3.2-0.9c-1.8,0-2.6,0.7-2.6,1.5c0,2.6,7.1,0.5,7.1,4.8c0,2-1.8,3.3-4.8,3.3 C40.8,149.7,39,149.2,38.1,148.4z"></path> <path class="st4" d="M55.8,149c-0.6,0.5-1.5,0.8-2.4,0.8c-2.2,0-3.5-1.2-3.5-3.5v-6.1h-1.9v-1.7h1.9v-2.4h2v2.4H55v1.7h-3.2v6 c0,1.2,0.6,1.9,1.7,1.9c0.6,0,1.2-0.2,1.6-0.5L55.8,149z"></path> <path class="st4" d="M67.3,144.7h-9c0.3,2,1.8,3.3,4,3.3c1.3,0,2.4-0.4,3.2-1.3l1.1,1.3c-1,1.2-2.5,1.8-4.4,1.8 c-3.6,0-6-2.4-6-5.7c0-3.3,2.4-5.7,5.6-5.7c3.2,0,5.5,2.3,5.5,5.7C67.3,144.3,67.3,144.5,67.3,144.7z M61.5,136.9l-3.5-2.7h2.6 l2.9,2.7H61.5z M58.3,143.3h7.1c-0.2-1.9-1.6-3.2-3.6-3.2C59.9,140.1,58.5,141.4,58.3,143.3z"></path> <path class="st4" d="M88.1,143.2v6.4h-2v-6.2c0-2.2-1-3.3-2.9-3.3c-2,0-3.3,1.3-3.3,3.7v5.7h-2v-6.2c0-2.2-1-3.3-2.9-3.3 c-2,0-3.3,1.3-3.3,3.7v5.7h-2v-11.1h1.9v1.7c0.8-1.1,2.2-1.8,3.8-1.8c1.7,0,3.1,0.7,3.9,2.1c0.8-1.3,2.4-2.1,4.3-2.1 C86.2,138.4,88.1,139.9,88.1,143.2z"></path> <path class="st4" d="M101.4,144.7h-9c0.3,2,1.8,3.3,4,3.3c1.3,0,2.4-0.4,3.2-1.3l1.1,1.3c-1,1.2-2.5,1.8-4.4,1.8 c-3.6,0-6-2.4-6-5.7c0-3.3,2.4-5.7,5.6-5.7s5.5,2.3,5.5,5.7C101.4,144.3,101.4,144.5,101.4,144.7z M92.3,143.3h7.1 c-0.2-1.9-1.6-3.2-3.6-3.2C94,140.1,92.5,141.4,92.3,143.3z"></path> <path class="st4" d="M119.3,134v15.6h-1.9v-1.8c-0.9,1.3-2.3,1.9-4,1.9c-3.3,0-5.6-2.3-5.6-5.7s2.4-5.7,5.6-5.7 c1.6,0,3,0.6,3.9,1.8V134H119.3z M117.3,144c0-2.4-1.6-3.9-3.7-3.9c-2.1,0-3.8,1.5-3.8,3.9s1.6,3.9,3.8,3.9 C115.7,148,117.3,146.4,117.3,144z"></path> <path class="st4" d="M124.5,135.3c0,0.4-0.1,0.7-0.3,1.5l-1,2.9h-1.3l0.8-3.1c-0.5-0.2-0.9-0.7-0.9-1.3c0-0.8,0.6-1.4,1.4-1.4 S124.5,134.5,124.5,135.3z"></path> <path class="st4" d="M135.4,142.9v6.7h-1.9v-1.5c-0.7,1-1.9,1.6-3.7,1.6c-2.5,0-4.1-1.3-4.1-3.3c0-1.8,1.2-3.3,4.5-3.3h3.2v-0.4 c0-1.7-1-2.7-3-2.7c-1.3,0-2.7,0.5-3.5,1.2l-0.8-1.5c1.2-0.9,2.8-1.4,4.6-1.4C133.7,138.4,135.4,139.9,135.4,142.9z M133.4,146.2 v-1.6h-3.1c-2,0-2.6,0.8-2.6,1.7c0,1.1,0.9,1.8,2.5,1.8C131.7,148.2,132.9,147.5,133.4,146.2z"></path> <path class="st4" d="M138.7,134h2v15.6h-2V134z"></path> <path class="st4" d="M152.8,142.9v6.7h-1.9v-1.5c-0.7,1-1.9,1.6-3.7,1.6c-2.5,0-4.1-1.3-4.1-3.3c0-1.8,1.2-3.3,4.5-3.3h3.2v-0.4 c0-1.7-1-2.7-3-2.7c-1.3,0-2.7,0.5-3.5,1.2l-0.8-1.5c1.2-0.9,2.8-1.4,4.6-1.4C151.1,138.4,152.8,139.9,152.8,142.9z M150.8,146.2 v-1.6h-3.1c-2,0-2.6,0.8-2.6,1.7c0,1.1,0.9,1.8,2.5,1.8C149.1,148.2,150.3,147.5,150.8,146.2z"></path> <path class="st4" d="M162,138.4v2c-0.2,0-0.3,0-0.5,0c-2.2,0-3.5,1.3-3.5,3.8v5.5h-2v-11.1h1.9v1.9 C158.7,139.1,160.1,138.4,162,138.4z"></path> <path class="st4" d="M182.4,143.2v6.4h-2v-6.2c0-2.2-1-3.3-2.9-3.3c-2,0-3.3,1.3-3.3,3.7v5.7h-2v-6.2c0-2.2-1-3.3-2.9-3.3 c-2,0-3.3,1.3-3.3,3.7v5.7h-2v-11.1h1.9v1.7c0.8-1.1,2.2-1.8,3.8-1.8c1.7,0,3.1,0.7,3.9,2.1c0.8-1.3,2.4-2.1,4.3-2.1 C180.6,138.4,182.4,139.9,182.4,143.2z"></path> <path class="st4" d="M195.7,144.7h-9c0.3,2,1.8,3.3,4,3.3c1.3,0,2.4-0.4,3.2-1.3l1.1,1.3c-1,1.2-2.5,1.8-4.4,1.8 c-3.6,0-6-2.4-6-5.7c0-3.3,2.4-5.7,5.6-5.7s5.5,2.3,5.5,5.7C195.8,144.3,195.7,144.5,195.7,144.7z M186.7,143.3h7.1 c-0.2-1.9-1.6-3.2-3.6-3.2C188.3,140.1,186.9,141.4,186.7,143.3z"></path> </g> </g> <g> <ellipse class="st7" cx="504.4" cy="266.8" rx="315.8" ry="246.6"></ellipse> </g> <circle class="st4" cx="426" cy="25" r="6.2"></circle> <circle class="st4" cx="426" cy="503.4" r="6.2"></circle> <circle class="st4" cx="585.4" cy="25" r="6.2"></circle> <circle class="st4" cx="299.2" cy="75.6" r="6.2"></circle> <circle class="st4" cx="707.8" cy="75.6" r="6.2"></circle> <circle class="st4" cx="229.2" cy="142.1" r="6.2"></circle> <circle class="st4" cx="777.7" cy="142.1" r="6.2"></circle> <circle class="st4" cx="198.3" cy="205.6" r="6.2"></circle> <circle class="st4" cx="810.4" cy="205.6" r="6.2"></circle> <circle class="st4" cx="198.3" cy="328.2" r="6.2"></circle> <circle class="st4" cx="810.4" cy="328.2" r="6.2"></circle> <circle class="st4" cx="235.2" cy="390" r="6.2"></circle> <circle class="st4" cx="777.7" cy="390" r="6.2"></circle> <circle class="st4" cx="305.2" cy="454.7" r="6.2"></circle> <circle class="st4" cx="703.5" cy="454.7" r="6.2"></circle> <circle class="st4" cx="188.6" cy="264" r="6.2"></circle> <circle class="st4" cx="820.1" cy="264" r="6.2"></circle> <path class="st6" d="M576,63.6c1.8,0,3.3-1.5,3.3-3.3h-6.6C572.7,62.1,574.2,63.6,576,63.6z"></path> <path class="st6" d="M561.7,59h28.7c0,0-6-2.1-6.2-11.7c0,0,1.8-13-8.2-13.5c0,0-9.2,0-8.3,13.2C567.8,47,568.4,57.9,561.7,59z"></path> <path class="st6" d="M780.1,276.3c-4.5-4.5-4.5-11.7,0-16.2l6.2-6.2c1.3-1.3,1.3-3.5,0-4.9c-1.3-1.3-3.5-1.3-4.9,0l-5.9,5.9 l-4.8-4.8l5.9-5.9c4-4,10.4-4,14.4,0c4,4,4,10.4,0,14.4l-6.2,6.2c-1.8,1.8-1.8,4.9,0,6.7c1.8,1.8,4.9,1.8,6.7,0l7-7l4.8,4.8l-7,7 C791.9,280.8,784.6,280.8,780.1,276.3z"></path> <g> <path class="st6" d="M771.3,254.5c-0.5,0.9-0.9,1.6-1.1,2.2c-0.2,0.6-0.3,1.4-0.4,2.3l0,0.4c-0.1,1.2-0.4,2.1-1,2.7 c-0.7,0.7-1.5,1-2.5,1c-1,0-1.8-0.4-2.5-1c-0.7-0.7-1-1.5-1-2.5c0-1,0.3-1.8,1-2.5c0.6-0.6,1.5-1,2.7-1l0.4,0 c0.9-0.1,1.7-0.2,2.3-0.4C769.7,255.4,770.5,255,771.3,254.5z"></path> </g> <g> <path class="st6" d="M766,269.7c-0.5,0.9-0.9,1.6-1.1,2.2c-0.2,0.6-0.3,1.4-0.4,2.3l0,0.4c-0.1,1.2-0.4,2.1-1,2.7 c-0.7,0.7-1.5,1-2.5,1c-1,0-1.8-0.4-2.5-1c-0.7-0.7-1-1.5-1-2.5c0-1,0.3-1.8,1-2.5c0.6-0.6,1.5-1,2.7-1l0.4,0 c0.9-0.1,1.7-0.2,2.3-0.4C764.4,270.6,765.1,270.2,766,269.7z"></path> </g> <g> <path class="st6" d="M756.1,259.8c-0.5,0.9-0.9,1.6-1.1,2.2c-0.2,0.6-0.3,1.4-0.4,2.3l0,0.4c-0.1,1.2-0.4,2.1-1,2.7 c-0.7,0.7-1.5,1-2.5,1c-1,0-1.8-0.4-2.5-1c-0.7-0.7-1-1.5-1-2.5c0-1,0.3-1.8,1-2.5c0.6-0.6,1.5-1,2.7-1l0.4,0 c0.9-0.1,1.7-0.2,2.3-0.4C754.5,260.7,755.2,260.3,756.1,259.8z"></path> </g> <line class="st8" x1="410.8" y1="45.1" x2="441.3" y2="45.1"></line> <line class="st8" x1="410.8" y1="49.9" x2="441.3" y2="49.9"></line> <line class="st8" x1="410.8" y1="54.8" x2="441.3" y2="54.8"></line> <line class="st8" x1="410.8" y1="59.7" x2="441.3" y2="59.7"></line> <line class="st8" x1="410.8" y1="64.6" x2="441.3" y2="64.6"></line> <path class="st6" d="M328.3,96.1c0,5.5-4.4,9.9-9.9,9.9c-5.5,0-9.9-4.4-9.9-9.9c0-5.5,4.4-9.9,9.9-9.9 C323.9,86.2,328.3,90.6,328.3,96.1z"></path> <g> <path class="st6" d="M332.4,96.1l4.1-4.1l-6.1-1.2l3.6-4.6h-5.7v-5.4l-4.7,2.4l-1.3-5.2l-3.9,4.5l-3.4-4.5l-1.5,6.1l-4.9-3.4 l0.6,5.5h-5.8l3.1,4.8l-6,1.6l4.5,3.5l-4.5,3.7l6,1.4l-2.9,4.8l4.9-0.6v6l5.2-3.3l1.3,5.7l3.4-3.9l3.7,3.9l1.8-5.7l4.3,3.3h0.7 l-0.7-6.1h6l-3-4.2l5.3-1.6L332.4,96.1z M318.4,108.1c-6.6,0-12-5.4-12-12s5.4-12,12-12s12,5.4,12,12S325,108.1,318.4,108.1z"></path> </g> <g> <path class="st6" d="M249.5,197.4c-0.5-9.5-7.8-10-7.9-10h-15.9c-6,0-8.1,6.1-8.5,10c-2.9,0.9-5,3.6-5,6.8c0,4,3.2,7.2,7.2,7.2 h28.1c4,0,7.2-3.2,7.2-7.2C254.5,201,252.4,198.3,249.5,197.4z M225.7,189.4l15.8,0c0.2,0,5.3,0.4,5.9,7.7c0,0-0.1,0-0.1,0h-28.1 c0,0-0.1,0-0.1,0C219.6,194.5,220.9,189.4,225.7,189.4z M223.4,205.6h-5.6c-0.8,0-1.4-0.6-1.4-1.4c0-0.8,0.6-1.4,1.4-1.4h5.6 c0.8,0,1.4,0.6,1.4,1.4C224.8,205,224.1,205.6,223.4,205.6z M248.9,205.6h-5.6c-0.8,0-1.4-0.6-1.4-1.4c0-0.8,0.6-1.4,1.4-1.4h5.6 c0.8,0,1.4,0.6,1.4,1.4C250.3,205,249.6,205.6,248.9,205.6z"></path> <path class="st6" d="M242.5,215.4c0,2,1.6,3.5,3.5,3.5c2,0,3.5-1.6,3.5-3.5v-2.2h-7.1V215.4z"></path> <path class="st6" d="M217,215.4c0,2,1.6,3.5,3.5,3.5c2,0,3.5-1.6,3.5-3.5v-2.2H217V215.4z"></path> </g> </svg> 